<svg width="1000" height="800" viewBox="0,0,1000,800" style="max-width: 100%; height: auto;"><defs><pattern id="linkFailurePattern" patternUnits="userSpaceOnUse" width="4" height="4"><path d="M-1,1 l2,-2 M0,4 l4,-4 M3,5 l2,-2" stroke="#FF0000" stroke-width="1"></path></pattern><pattern id="nodeFailurePattern" patternUnits="userSpaceOnUse" width="4" height="4"><path d="M-1,1 l2,-2 M0,4 l4,-4 M3,5 l2,-2" stroke="#00FF00" stroke-width="1"></path></pattern><pattern id="timeoutPattern" patternUnits="userSpaceOnUse" width="4" height="4"><path d="M-1,1 l2,-2 M0,4 l4,-4 M3,5 l2,-2" stroke="#0000FF" stroke-width="1"></path></pattern></defs><g transform="translate(0,770)" fill="none" font-size="10" font-family="sans-serif" text-anchor="middle"><path class="domain" stroke="currentColor" d="M60.5,6V0.5H980.5V6"></path><g class="tick" opacity="1" transform="translate(60.5,0)"><line stroke="currentColor" y2="6"></line><text fill="currentColor" y="9" dy="0.71em">0</text></g><g class="tick" opacity="1" transform="translate(145.81426250456707,0)"><line stroke="currentColor" y2="6"></line><text fill="currentColor" y="9" dy="0.71em">50,000</text></g><g class="tick" opacity="1" transform="translate(231.12852500913417,0)"><line stroke="currentColor" y2="6"></line><text fill="currentColor" y="9" dy="0.71em">100,000</text></g><g class="tick" opacity="1" transform="translate(316.4427875137013,0)"><line stroke="currentColor" y2="6"></line><text fill="currentColor" y="9" dy="0.71em">150,000</text></g><g class="tick" opacity="1" transform="translate(401.75705001826833,0)"><line stroke="currentColor" y2="6"></line><text fill="currentColor" y="9" dy="0.71em">200,000</text></g><g class="tick" opacity="1" transform="translate(487.07131252283546,0)"><line stroke="currentColor" y2="6"></line><text fill="currentColor" y="9" dy="0.71em">250,000</text></g><g class="tick" opacity="1" transform="translate(572.3855750274026,0)"><line stroke="currentColor" y2="6"></line><text fill="currentColor" y="9" dy="0.71em">300,000</text></g><g class="tick" opacity="1" transform="translate(657.6998375319697,0)"><line stroke="currentColor" y2="6"></line><text fill="currentColor" y="9" dy="0.71em">350,000</text></g><g class="tick" opacity="1" transform="translate(743.0141000365367,0)"><line stroke="currentColor" y2="6"></line><text fill="currentColor" y="9" dy="0.71em">400,000</text></g><g class="tick" opacity="1" transform="translate(828.3283625411038,0)"><line stroke="currentColor" y2="6"></line><text fill="currentColor" y="9" dy="0.71em">450,000</text></g><g class="tick" opacity="1" transform="translate(913.6426250456709,0)"><line stroke="currentColor" y2="6"></line><text fill="currentColor" y="9" dy="0.71em">500,000</text></g></g><g transform="translate(60,0)" fill="none" font-size="10" font-family="sans-serif" text-anchor="end"><path class="domain" stroke="currentColor" d="M-6,770.5H0.5V20.5H-6"></path><g class="tick" opacity="1" transform="translate(0,770.5)"><line stroke="currentColor" x2="-6"></line><text fill="currentColor" x="-9" dy="0.32em">0</text></g><g class="tick" opacity="1" transform="translate(0,711.8237365044594)"><line stroke="currentColor" x2="-6"></line><text fill="currentColor" x="-9" dy="0.32em">2,000</text></g><g class="tick" opacity="1" transform="translate(0,653.1474730089188)"><line stroke="currentColor" x2="-6"></line><text fill="currentColor" x="-9" dy="0.32em">4,000</text></g><g class="tick" opacity="1" transform="translate(0,594.4712095133782)"><line stroke="currentColor" x2="-6"></line><text fill="currentColor" x="-9" dy="0.32em">6,000</text></g><g class="tick" opacity="1" transform="translate(0,535.7949460178376)"><line stroke="currentColor" x2="-6"></line><text fill="currentColor" x="-9" dy="0.32em">8,000</text></g><g class="tick" opacity="1" transform="translate(0,477.11868252229704)"><line stroke="currentColor" x2="-6"></line><text fill="currentColor" x="-9" dy="0.32em">10,000</text></g><g class="tick" opacity="1" transform="translate(0,418.4424190267564)"><line stroke="currentColor" x2="-6"></line><text fill="currentColor" x="-9" dy="0.32em">12,000</text></g><g class="tick" opacity="1" transform="translate(0,359.76615553121576)"><line stroke="currentColor" x2="-6"></line><text fill="currentColor" x="-9" dy="0.32em">14,000</text></g><g class="tick" opacity="1" transform="translate(0,301.0898920356752)"><line stroke="currentColor" x2="-6"></line><text fill="currentColor" x="-9" dy="0.32em">16,000</text></g><g class="tick" opacity="1" transform="translate(0,242.41362854013454)"><line stroke="currentColor" x2="-6"></line><text fill="currentColor" x="-9" dy="0.32em">18,000</text></g><g class="tick" opacity="1" transform="translate(0,183.73736504459401)"><line stroke="currentColor" x2="-6"></line><text fill="currentColor" x="-9" dy="0.32em">20,000</text></g><g class="tick" opacity="1" transform="translate(0,125.06110154905335)"><line stroke="currentColor" x2="-6"></line><text fill="currentColor" x="-9" dy="0.32em">22,000</text></g><g class="tick" opacity="1" transform="translate(0,66.3848380535128)"><line stroke="currentColor" x2="-6"></line><text fill="currentColor" x="-9" dy="0.32em">24,000</text></g></g><g></g><rect style="stroke: gray; fill: rgb(128, 179, 255);" x="60.05118855750275" y="769.5305898920357" height="0.469410107964336" width="0.418259997069633" class="z"></rect><rect style="stroke: gray; fill: rgb(170, 222, 135);" x="60.05118855750275" y="769.0611797840713" height="0.469410107964336" width="1.2880781478644465" class="z"></rect><rect style="stroke: gray; fill: rgb(255, 230, 128);" x="60.05118855750275" y="765.3058989203569" height="3.755280863714461" width="2.0269303742885043" class="z"></rect><rect style="stroke: gray; fill: rgb(255, 179, 128);" x="60.05118855750275" y="764.8364888123924" height="0.4694101079644497" width="2.146250901827379" class="z"></rect><rect style="stroke: gray; fill: rgb(255, 128, 128);" x="60.05118855750275" y="764.3670787044281" height="0.469410107964336" width="2.5438324279511733" class="z"></rect><rect style="stroke: gray; fill: rgb(42, 127, 255);" x="60.05118855750275" y="763.8976685964637" height="0.469410107964336" width="4.397284780862883" class="z"></rect><rect style="stroke: gray; fill: rgb(113, 200, 55);" x="60.05118855750275" y="763.7803160694727" height="0.11735252699099874" width="7.157098795770629" class="z"></rect><rect style="stroke: gray; fill: rgb(255, 212, 40);" x="60.05118855750275" y="762.8414958535441" height="0.938820215928672" width="8.06695834252934" class="z"></rect><rect style="stroke: gray; fill: rgb(255, 127, 42);" x="60.05118855750275" y="755.3309341261148" height="7.510561727429263" width="29.6492656482122" class="z"></rect><rect style="stroke: gray; fill: rgb(255, 42, 42);" x="60.05118855750275" y="747.8203723986857" height="7.510561727429149" width="38.67090765102015" class="z"></rect><rect style="stroke: gray; fill: rgb(0, 68, 170);" x="60.05118855750275" y="740.3098106712565" height="7.510561727429149" width="61.30068640888157" class="z"></rect><rect style="stroke: gray; fill: rgb(68, 120, 33);" x="67.883037855422" y="740.1924581442653" height="0.11735252699122611" width="7.199670612760414" class="z"></rect><rect style="stroke: gray; fill: rgb(212, 170, 0);" x="89.74055190909209" y="725.171334689407" height="15.021123454858298" width="24.66350014744529" class="z"></rect><rect style="stroke: gray; fill: rgb(212, 85, 0);" x="98.74973802957439" y="717.6607729619778" height="7.510561727429149" width="64.88013160652318" class="z"></rect><rect style="stroke: gray; fill: rgb(212, 0, 0);" x="114.41343662541288" y="717.1913628540135" height="0.469410107964336" width="0.4310076541730865" class="z"></rect><rect style="stroke: gray; fill: rgb(128, 179, 255);" x="114.41343662541288" y="716.7219527460492" height="0.469410107964336" width="1.4279901258014576" class="z"></rect><rect style="stroke: gray; fill: rgb(170, 222, 135);" x="114.41343662541288" y="712.9666718823345" height="3.755280863714688" width="2.0315032187587576" class="z"></rect><rect style="stroke: gray; fill: rgb(255, 230, 128);" x="114.41343662541288" y="712.4972617743701" height="0.469410107964336" width="2.1439474167397776" class="z"></rect><rect style="stroke: gray; fill: rgb(255, 179, 128);" x="114.41343662541288" y="712.0278516664059" height="0.46941010796422233" width="2.5336629678606357" class="z"></rect><rect style="stroke: gray; fill: rgb(255, 128, 128);" x="114.41343662541288" y="711.5584415584416" height="0.469410107964336" width="4.366895840558783" class="z"></rect><rect style="stroke: gray; fill: rgb(42, 127, 255);" x="114.41343662541288" y="711.4410890314506" height="0.11735252699099874" width="7.127494746681563" class="z"></rect><rect style="stroke: gray; fill: rgb(113, 200, 55);" x="114.41343662541288" y="710.5022688155219" height="0.938820215928672" width="9.317511865173785" class="z"></rect><rect style="stroke: gray; fill: rgb(255, 212, 40);" x="114.41343662541288" y="702.9917070880927" height="7.510561727429263" width="29.56258635750757" class="z"></rect><rect style="stroke: gray; fill: rgb(255, 127, 42);" x="121.37508044578558" y="702.5222969801283" height="0.469410107964336" width="0.41769862922237166" class="z"></rect><rect style="stroke: gray; fill: rgb(255, 42, 42);" x="121.37508044578558" y="702.052886872164" height="0.469410107964336" width="1.209926870839766" class="z"></rect><rect style="stroke: gray; fill: rgb(0, 68, 170);" x="121.37508044578558" y="698.2976060084494" height="3.7552808637145745" width="2.0221186498832253" class="z"></rect><rect style="stroke: gray; fill: rgb(68, 120, 33);" x="121.37508044578558" y="697.828195900485" height="0.4694101079644497" width="2.1466774731399028" class="z"></rect><rect style="stroke: gray; fill: rgb(212, 170, 0);" x="121.37508044578558" y="697.3587857925208" height="0.46941010796410865" width="2.551578962986582" class="z"></rect><rect style="stroke: gray; fill: rgb(212, 85, 0);" x="121.37508044578558" y="689.8482240650915" height="7.510561727429376" width="38.13308654019136" class="z"></rect><rect style="stroke: gray; fill: rgb(212, 0, 0);" x="121.9381545783157" y="689.3788139571272" height="0.46941010796422233" width="4.349150473957835" class="z"></rect><rect style="stroke: gray; fill: rgb(128, 179, 255);" x="123.72975409091161" y="689.2614614301361" height="0.11735252699111243" width="7.17765953303423" class="z"></rect><rect style="stroke: gray; fill: rgb(170, 222, 135);" x="123.98569687842533" y="688.7920513221719" height="0.46941010796422233" width="1.2699881116429879" class="z"></rect><rect style="stroke: gray; fill: rgb(255, 230, 128);" x="124.13926255093355" y="685.0367704584572" height="3.755280863714688" width="5.547645233621978" class="z"></rect><rect style="stroke: gray; fill: rgb(255, 179, 128);" x="125.31659937349656" y="684.0979502425286" height="0.938820215928672" width="8.054348894531188" class="z"></rect><rect style="stroke: gray; fill: rgb(255, 128, 128);" x="144.00042286199675" y="669.0768267876703" height="15.021123454858298" width="22.932815018277665" class="z"></rect><rect style="stroke: gray; fill: rgb(42, 127, 255);" x="159.51055578532706" y="668.6074166797058" height="0.4694101079644497" width="0.4217937138225807" class="z"></rect><rect style="stroke: gray; fill: rgb(113, 200, 55);" x="159.51055578532706" y="668.1380065717415" height="0.469410107964336" width="1.3189584983205975" class="z"></rect><rect style="stroke: gray; fill: rgb(255, 212, 40);" x="159.51055578532706" y="667.6685964637771" height="0.469410107964336" width="2.1560620420154066" class="z"></rect><rect style="stroke: gray; fill: rgb(255, 127, 42);" x="161.71166375794488" y="660.158034736348" height="7.510561727429149" width="62.59985199830115" class="z"></rect><rect style="stroke: gray; fill: rgb(255, 42, 42);" x="163.65682894304902" y="656.4027538726333" height="3.755280863714688" width="2.0369633315590647" class="z"></rect><rect style="stroke: gray; fill: rgb(0, 68, 170);" x="163.65682894304902" y="655.9333437646691" height="0.46941010796422233" width="2.5307622829354557" class="z"></rect><rect style="stroke: gray; fill: rgb(68, 120, 33);" x="163.65682894304902" y="655.4639336567047" height="0.469410107964336" width="4.4030690878607" class="z"></rect><rect style="stroke: gray; fill: rgb(212, 170, 0);" x="163.65682894304902" y="655.3465811297136" height="0.11735252699111243" width="7.1855084451846665" class="z"></rect><rect style="stroke: gray; fill: rgb(212, 85, 0);" x="163.65682894304902" y="654.4077609137851" height="0.9388202159285584" width="8.074994946057274" class="z"></rect><rect style="stroke: gray; fill: rgb(212, 0, 0);" x="166.98408518072713" y="653.9383508058207" height="0.469410107964336" width="0.4146273157722078" class="z"></rect><rect style="stroke: gray; fill: rgb(128, 179, 255);" x="166.98408518072713" y="646.4277890783916" height="7.510561727429149" width="29.43649187752581" class="z"></rect><rect style="stroke: gray; fill: rgb(170, 222, 135);" x="166.98408518072713" y="638.9172273509622" height="7.510561727429376" width="64.93609776272618" class="z"></rect><rect style="stroke: gray; fill: rgb(255, 230, 128);" x="171.744621028482" y="631.4066656235331" height="7.510561727429149" width="39.5419662711918" class="z"></rect><rect style="stroke: gray; fill: rgb(255, 179, 128);" x="196.46869430230552" y="630.9372555155687" height="0.469410107964336" width="0.414115430197171" class="z"></rect><rect style="stroke: gray; fill: rgb(255, 128, 128);" x="196.46869430230552" y="627.1819746518541" height="3.7552808637145745" width="2.0297969335086634" class="z"></rect><rect style="stroke: gray; fill: rgb(42, 127, 255);" x="196.46869430230552" y="626.7125645438899" height="0.46941010796422233" width="2.1471893587149395" class="z"></rect><rect style="stroke: gray; fill: rgb(113, 200, 55);" x="196.46869430230552" y="626.2431544359255" height="0.4694101079644497" width="2.5220602281600577" class="z"></rect><rect style="stroke: gray; fill: rgb(255, 212, 40);" x="196.46869430230552" y="625.7737443279611" height="0.469410107964336" width="4.373209095984123" class="z"></rect><rect style="stroke: gray; fill: rgb(255, 127, 42);" x="211.3133759781002" y="610.7526208731028" height="15.021123454858298" width="34.96690363012186" class="z"></rect><rect style="stroke: gray; fill: rgb(255, 42, 42);" x="224.31526958379624" y="610.2832107651385" height="0.469410107964336" width="1.2629923421175988" class="z"></rect><rect style="stroke: gray; fill: rgb(0, 68, 170);" x="224.31526958379624" y="610.1658582381475" height="0.11735252699099874" width="7.152747768382881" class="z"></rect><rect style="stroke: gray; fill: rgb(68, 120, 33);" x="224.31526958379624" y="609.2270380222187" height="0.9388202159287857" width="8.06561037718177" class="z"></rect><rect style="stroke: gray; fill: rgb(212, 170, 0);" x="231.94236465170454" y="608.7576279142544" height="0.469410107964336" width="0.4419278797736297" class="z"></rect><rect style="stroke: gray; fill: rgb(212, 85, 0);" x="231.94236465170454" y="605.0023470505398" height="3.7552808637145745" width="2.0253605918584014" class="z"></rect><rect style="stroke: gray; fill: rgb(212, 0, 0);" x="231.94236465170454" y="604.5329369425755" height="0.469410107964336" width="2.144800559364768" class="z"></rect><rect style="stroke: gray; fill: rgb(128, 179, 255);" x="231.94236465170454" y="604.0635268346113" height="0.46941010796422233" width="2.5730781571377577" class="z"></rect><rect style="stroke: gray; fill: rgb(170, 222, 135);" x="231.94236465170454" y="603.5941167266468" height="0.4694101079644497" width="4.356146243483181" class="z"></rect><rect style="stroke: gray; fill: rgb(255, 230, 128);" x="231.94236465170454" y="596.0835549992177" height="7.510561727429149" width="29.631349653086232" class="z"></rect><rect style="stroke: gray; fill: rgb(255, 179, 128);" x="236.34458059694018" y="588.5729932717884" height="7.510561727429263" width="39.83834801913267" class="z"></rect><rect style="stroke: gray; fill: rgb(255, 128, 128);" x="246.32634930997455" y="588.1035831638242" height="0.46941010796422233" width="1.344552777071982" class="z"></rect><rect style="stroke: gray; fill: rgb(42, 127, 255);" x="246.32634930997455" y="580.5930214363948" height="7.510561727429376" width="60.858076015007896" class="z"></rect><rect style="stroke: gray; fill: rgb(113, 200, 55);" x="247.70844036254852" y="573.0824597089658" height="7.510561727429035" width="64.6596795522114" class="z"></rect><rect style="stroke: gray; fill: rgb(255, 212, 40);" x="261.58053944579115" y="572.6130496010013" height="0.4694101079644497" width="0.4197461715224904" class="z"></rect><rect style="stroke: gray; fill: rgb(255, 127, 42);" x="261.58053944579115" y="572.1436394930371" height="0.46941010796422233" width="2.146506844614862" class="z"></rect><rect style="stroke: gray; fill: rgb(255, 42, 42);" x="261.58053944579115" y="571.6742293850727" height="0.469410107964336" width="2.5253021701351486" class="z"></rect><rect style="stroke: gray; fill: rgb(0, 68, 170);" x="261.58053944579115" y="571.2048192771085" height="0.46941010796422233" width="4.65303987699906" class="z"></rect><rect style="stroke: gray; fill: rgb(68, 120, 33);" x="261.58053944579115" y="567.4495384133938" height="3.755280863714688" width="5.767244145308723" class="z"></rect><rect style="stroke: gray; fill: rgb(212, 170, 0);" x="261.58053944579115" y="567.3321858864027" height="0.11735252699111243" width="7.173223191384011" class="z"></rect><rect style="stroke: gray; fill: rgb(212, 85, 0);" x="261.58053944579115" y="566.393365670474" height="0.938820215928672" width="8.063904091931704" class="z"></rect><rect style="stroke: gray; fill: rgb(212, 0, 0);" x="276.2204668915748" y="551.3722422156158" height="15.021123454858298" width="23.823154661775334" class="z"></rect><rect style="stroke: gray; fill: rgb(128, 179, 255);" x="300.07433468785183" y="550.9028321076514" height="0.469410107964336" width="0.41803988627236777" class="z"></rect><rect style="stroke: gray; fill: rgb(170, 222, 135);" x="300.07433468785183" y="550.433421999687" height="0.4694101079644497" width="1.2916579343191188" class="z"></rect><rect style="stroke: gray; fill: rgb(255, 230, 128);" x="300.07433468785183" y="546.6781411359724" height="3.7552808637145745" width="2.0168291656079873" class="z"></rect><rect style="stroke: gray; fill: rgb(255, 179, 128);" x="300.07433468785183" y="546.2087310280082" height="0.46941010796422233" width="2.146506844614862" class="z"></rect><rect style="stroke: gray; fill: rgb(255, 128, 128);" x="300.07433468785183" y="545.7393209200438" height="0.469410107964336" width="2.569665586637541" class="z"></rect><rect style="stroke: gray; fill: rgb(42, 127, 255);" x="300.07433468785183" y="545.2699108120795" height="0.469410107964336" width="4.438047935487532" class="z"></rect><rect style="stroke: gray; fill: rgb(113, 200, 55);" x="300.07433468785183" y="545.1525582850884" height="0.11735252699111243" width="7.142510056882372" class="z"></rect><rect style="stroke: gray; fill: rgb(255, 212, 40);" x="300.07433468785183" y="537.6419965576592" height="7.510561727429149" width="29.62623079733595" class="z"></rect><rect style="stroke: gray; fill: rgb(255, 127, 42);" x="307.1895441807327" y="537.1725864496949" height="0.469410107964336" width="0.4197461715224904" class="z"></rect><rect style="stroke: gray; fill: rgb(255, 42, 42);" x="307.1895441807327" y="536.2337662337662" height="0.938820215928672" width="8.268658321942667" class="z"></rect><rect style="stroke: gray; fill: rgb(0, 68, 170);" x="307.1895441807327" y="528.7232045063371" height="7.510561727429149" width="38.3914181270552" class="z"></rect><rect style="stroke: gray; fill: rgb(68, 120, 33);" x="315.4820904961766" y="513.7020810514787" height="15.021123454858412" width="23.19012283399144" class="z"></rect><rect style="stroke: gray; fill: rgb(212, 170, 0);" x="329.7125094819384" y="513.2326709435143" height="0.469410107964336" width="0.4760535847754568" class="z"></rect><rect style="stroke: gray; fill: rgb(212, 85, 0);" x="329.7125094819384" y="512.76326083555" height="0.469410107964336" width="1.3786784820737807" class="z"></rect><rect style="stroke: gray; fill: rgb(212, 0, 0);" x="329.7125094819384" y="509.0079799718354" height="3.7552808637145745" width="2.01853545085811" class="z"></rect><rect style="stroke: gray; fill: rgb(128, 179, 255);" x="329.7125094819384" y="508.53856986387103" height="0.46941010796439286" width="2.1328565626141653" class="z"></rect><rect style="stroke: gray; fill: rgb(170, 222, 135);" x="329.7125094819384" y="508.06915975590675" height="0.4694101079642792" width="2.5935535801388028" class="z"></rect><rect style="stroke: gray; fill: rgb(255, 230, 128);" x="329.7125094819384" y="507.5997496479424" height="0.469410107964336" width="4.351027387732927" class="z"></rect><rect style="stroke: gray; fill: rgb(255, 179, 128);" x="329.7125094819384" y="507.48239712095136" height="0.11735252699105558" width="7.176635761884256" class="z"></rect><rect style="stroke: gray; fill: rgb(255, 128, 128);" x="336.9300960898248" y="499.97183539352216" height="7.510561727429206" width="64.84395835922123" class="z"></rect><rect style="stroke: gray; fill: rgb(42, 127, 255);" x="338.7216956024207" y="499.5024252855579" height="0.4694101079642792" width="1.313839642570315" class="z"></rect><rect style="stroke: gray; fill: rgb(113, 200, 55);" x="338.7216956024207" y="499.03301517759354" height="0.469410107964336" width="2.1550382708653615" class="z"></rect><rect style="stroke: gray; fill: rgb(255, 212, 40);" x="338.7216956024207" y="498.09419496166487" height="0.938820215928672" width="9.215646635743326" class="z"></rect><rect style="stroke: gray; fill: rgb(255, 127, 42);" x="338.7216956024207" y="490.58363323423566" height="7.510561727429206" width="59.89573113395636" class="z"></rect><rect style="stroke: gray; fill: rgb(255, 42, 42);" x="345.6321508652906" y="490.11422312627127" height="0.46941010796439286" width="0.4231587420226788" class="z"></rect><rect style="stroke: gray; fill: rgb(0, 68, 170);" x="345.6321508652906" y="489.644813018307" height="0.4694101079642792" width="1.2814202228186673" class="z"></rect><rect style="stroke: gray; fill: rgb(68, 120, 33);" x="345.6321508652906" y="485.8895321545923" height="3.755280863714688" width="2.028773162358675" class="z"></rect><rect style="stroke: gray; fill: rgb(212, 170, 0);" x="345.6321508652906" y="485.4201220466281" height="0.46941010796422233" width="2.523595884885083" class="z"></rect><rect style="stroke: gray; fill: rgb(212, 85, 0);" x="345.6321508652906" y="484.9507119386638" height="0.4694101079642792" width="4.354439958233115" class="z"></rect><rect style="stroke: gray; fill: rgb(212, 0, 0);" x="345.6321508652906" y="484.83335941167263" height="0.11735252699116927" width="7.111796922380734" class="z"></rect><rect style="stroke: gray; fill: rgb(128, 179, 255);" x="345.6321508652906" y="477.3227976842435" height="7.510561727429149" width="29.93677471285264" class="z"></rect><rect style="stroke: gray; fill: rgb(170, 222, 135);" x="375.5774570043937" y="462.30167422938507" height="15.021123454858412" width="23.326625653998747" class="z"></rect><rect style="stroke: gray; fill: rgb(255, 230, 128);" x="398.6634964381296" y="454.79111250195587" height="7.510561727429206" width="38.12353134279084" class="z"></rect><rect style="stroke: gray; fill: rgb(255, 179, 128);" x="398.91943922564326" y="454.3217023939916" height="0.4694101079642792" width="0.4299838830229987" class="z"></rect><rect style="stroke: gray; fill: rgb(255, 128, 128);" x="398.91943922564326" y="453.8522922860272" height="0.46941010796439286" width="1.3377276360716337" class="z"></rect><rect style="stroke: gray; fill: rgb(42, 127, 255);" x="398.91943922564326" y="453.38288217806286" height="0.469410107964336" width="2.146506844614919" class="z"></rect><rect style="stroke: gray; fill: rgb(113, 200, 55);" x="398.91943922564326" y="452.91347207009863" height="0.46941010796422233" width="2.5781970128879834" class="z"></rect><rect style="stroke: gray; fill: rgb(255, 212, 40);" x="398.91943922564326" y="452.44406196213424" height="0.46941010796439286" width="4.327139394231665" class="z"></rect><rect style="stroke: gray; fill: rgb(255, 127, 42);" x="398.91943922564326" y="448.6887810984197" height="3.7552808637145176" width="5.2331768620301204" class="z"></rect><rect style="stroke: gray; fill: rgb(255, 42, 42);" x="398.91943922564326" y="448.57142857142856" height="0.11735252699116927" width="7.12544720438143" class="z"></rect><rect style="stroke: gray; fill: rgb(0, 68, 170);" x="398.91943922564326" y="447.6326083554999" height="0.938820215928672" width="8.777131326469828" class="z"></rect><rect style="stroke: gray; fill: rgb(68, 120, 33);" x="398.91943922564326" y="440.1220466280707" height="7.510561727429206" width="29.575042239833238" class="z"></rect><rect style="stroke: gray; fill: rgb(212, 170, 0);" x="401.78599844579674" y="439.6526365201064" height="0.4694101079642792" width="0.43680902402331867" class="z"></rect><rect style="stroke: gray; fill: rgb(212, 85, 0);" x="401.78599844579674" y="432.14207479267714" height="7.510561727429263" width="121.8577737057733" class="z"></rect><rect style="stroke: gray; fill: rgb(212, 0, 0);" x="428.50642546222707" y="417.1209513378188" height="15.021123454858355" width="78.87815454122256" class="z"></rect><rect style="stroke: gray; fill: rgb(128, 179, 255);" x="436.79897177767106" y="416.6515412298545" height="0.4694101079642792" width="1.3155459278204376" class="z"></rect><rect style="stroke: gray; fill: rgb(170, 222, 135);" x="436.79897177767106" y="416.18213112189017" height="0.469410107964336" width="2.1448005593647963" class="z"></rect><rect style="stroke: gray; fill: rgb(255, 230, 128);" x="436.79897177767106" y="415.7127210139258" height="0.46941010796439286" width="4.373209095984066" class="z"></rect><rect style="stroke: gray; fill: rgb(255, 179, 128);" x="441.2011877229067" y="408.2021592864967" height="7.510561727429092" width="64.81153893946947" class="z"></rect><rect style="stroke: gray; fill: rgb(255, 128, 128);" x="506.0570900788786" y="407.7327491785323" height="0.46941010796439286" width="0.4316901682730645" class="z"></rect><rect style="stroke: gray; fill: rgb(42, 127, 255);" x="506.0570900788786" y="403.9774683148177" height="3.7552808637145745" width="2.0219480213582415" class="z"></rect><rect style="stroke: gray; fill: rgb(113, 200, 55);" x="506.0570900788786" y="403.5080582068533" height="0.46941010796439286" width="2.5474838783863447" class="z"></rect><rect style="stroke: gray; fill: rgb(255, 212, 40);" x="506.0570900788786" y="403.3907056798623" height="0.11735252699099874" width="7.190286043884896" class="z"></rect><rect style="stroke: gray; fill: rgb(255, 127, 42);" x="506.0570900788786" y="402.45188546393365" height="0.938820215928672" width="8.053666380431139" class="z"></rect><rect style="stroke: gray; fill: rgb(255, 42, 42);" x="507.3879925739499" y="401.9824753559693" height="0.469410107964336" width="0.4248650272726877" class="z"></rect><rect style="stroke: gray; fill: rgb(0, 68, 170);" x="507.3879925739499" y="401.51306524800503" height="0.4694101079642792" width="1.4605801740781885" class="z"></rect><rect style="stroke: gray; fill: rgb(68, 120, 33);" x="507.3879925739499" y="401.0436551400407" height="0.469410107964336" width="2.141387988864608" class="z"></rect><rect style="stroke: gray; fill: rgb(212, 170, 0);" x="507.3879925739499" y="400.5742450320764" height="0.4694101079642792" width="4.3715028107339435" class="z"></rect><rect style="stroke: gray; fill: rgb(212, 85, 0);" x="507.3879925739499" y="393.06368330464716" height="7.510561727429263" width="29.593811377584302" class="z"></rect><rect style="stroke: gray; fill: rgb(212, 0, 0);" x="507.3879925739499" y="385.553121577218" height="7.510561727429149" width="37.44613609850467" class="z"></rect><rect style="stroke: gray; fill: rgb(128, 179, 255);" x="509.2307806440485" y="385.08371146925367" height="0.469410107964336" width="0.42486502727274456" class="z"></rect><rect style="stroke: gray; fill: rgb(170, 222, 135);" x="509.6914776615732" y="384.6143013612893" height="0.46941010796439286" width="2.1482131298649847" class="z"></rect><rect style="stroke: gray; fill: rgb(255, 230, 128);" x="509.94742044908685" y="384.144891253325" height="0.4694101079642792" width="2.5133581733846313" class="z"></rect><rect style="stroke: gray; fill: rgb(255, 179, 128);" x="511.58545428917455" y="380.3896103896104" height="3.7552808637145745" width="26.165884310150773" class="z"></rect><rect style="stroke: gray; fill: rgb(255, 128, 128);" x="512.3020940942129" y="379.9202002816461" height="0.469410107964336" width="2.146506844614919" class="z"></rect><rect style="stroke: gray; fill: rgb(42, 127, 255);" x="513.0187338992513" y="379.4507901736817" height="0.46941010796439286" width="0.41974617152243354" class="z"></rect><rect style="stroke: gray; fill: rgb(113, 200, 55);" x="513.5818080317814" y="379.3334376466907" height="0.11735252699099874" width="7.156160338883069" class="z"></rect><rect style="stroke: gray; fill: rgb(255, 212, 40);" x="514.5032020668307" y="378.86402753872636" height="0.469410107964336" width="0.421452456772613" class="z"></rect><rect style="stroke: gray; fill: rgb(255, 127, 42);" x="514.7079562968416" y="378.39461743076197" height="0.46941010796439286" width="2.1413879888647216" class="z"></rect><rect style="stroke: gray; fill: rgb(255, 42, 42);" x="514.8103334118472" y="377.9252073227977" height="0.4694101079642792" width="1.3462590623220194" class="z"></rect><rect style="stroke: gray; fill: rgb(0, 68, 170);" x="516.038858791913" y="377.45579721483335" height="0.469410107964336" width="4.320314253231231" class="z"></rect><rect style="stroke: gray; fill: rgb(68, 120, 33);" x="516.2436130219239" y="376.98638710686896" height="0.46941010796439286" width="1.336021350821511" class="z"></rect><rect style="stroke: gray; fill: rgb(212, 170, 0);" x="517.984023977017" y="376.51697699890474" height="0.46941010796422233" width="0.42998388302305557" class="z"></rect><rect style="stroke: gray; fill: rgb(212, 85, 0);" x="523.6659538598212" y="369.0064152714755" height="7.510561727429263" width="64.97363603822828" class="z"></rect><rect style="stroke: gray; fill: rgb(212, 0, 0);" x="537.7939957305775" y="353.9852918166171" height="15.021123454858355" width="48.789520441111904" class="z"></rect><rect style="stroke: gray; fill: rgb(128, 179, 255);" x="544.8580166659558" y="353.5158817086527" height="0.46941010796439286" width="0.42657131252281033" class="z"></rect><rect style="stroke: gray; fill: rgb(170, 222, 135);" x="544.8580166659558" y="353.0464716006885" height="0.46941010796422233" width="1.291657934319005" class="z"></rect><rect style="stroke: gray; fill: rgb(255, 230, 128);" x="544.8580166659558" y="352.5770614927241" height="0.46941010796439286" width="2.1448005593646258" class="z"></rect><rect style="stroke: gray; fill: rgb(255, 179, 128);" x="544.8580166659558" y="352.10765138475983" height="0.4694101079642792" width="2.57137187188755" class="z"></rect><rect style="stroke: gray; fill: rgb(255, 128, 128);" x="544.8580166659558" y="351.6382412767955" height="0.469410107964336" width="4.325433108981429" class="z"></rect><rect style="stroke: gray; fill: rgb(42, 127, 255);" x="544.8580166659558" y="351.5208887498044" height="0.11735252699111243" width="7.152747768382824" class="z"></rect><rect style="stroke: gray; fill: rgb(113, 200, 55);" x="544.8580166659558" y="350.58206853387577" height="0.9388202159286152" width="8.519482253706087" class="z"></rect><rect style="stroke: gray; fill: rgb(255, 212, 40);" x="553.4065057689133" y="343.07150680644656" height="7.510561727429206" width="59.09207078116333" class="z"></rect><rect style="stroke: gray; fill: rgb(255, 127, 42);" x="586.6278795881918" y="339.316225942732" height="3.7552808637145745" width="5.832082984812132" class="z"></rect><rect style="stroke: gray; fill: rgb(255, 42, 42);" x="586.6278795881918" y="331.8056642153028" height="7.510561727429206" width="29.55627310208206" class="z"></rect><rect style="stroke: gray; fill: rgb(0, 68, 170);" x="588.6754218883013" y="331.33625410733845" height="0.469410107964336" width="0.421452456772613" class="z"></rect><rect style="stroke: gray; fill: rgb(68, 120, 33);" x="588.6754218883013" y="330.8668439993741" height="0.469410107964336" width="1.2711825113181021" class="z"></rect><rect style="stroke: gray; fill: rgb(212, 170, 0);" x="588.6754218883013" y="330.39743389140983" height="0.4694101079642792" width="2.1311502773640996" class="z"></rect><rect style="stroke: gray; fill: rgb(212, 85, 0);" x="588.6754218883013" y="329.92802378344544" height="0.46941010796439286" width="2.5713718718876635" class="z"></rect><rect style="stroke: gray; fill: rgb(212, 0, 0);" x="588.6754218883013" y="329.4586136754811" height="0.469410107964336" width="4.368090240233869" class="z"></rect><rect style="stroke: gray; fill: rgb(128, 179, 255);" x="588.6754218883013" y="329.34126114849005" height="0.11735252699105558" width="7.176635761884199" class="z"></rect><rect style="stroke: gray; fill: rgb(170, 222, 135);" x="588.6754218883013" y="328.40244093256143" height="0.9388202159286152" width="8.069022947682015" class="z"></rect><rect style="stroke: gray; fill: rgb(255, 230, 128);" x="588.6754218883013" y="320.89187920513217" height="7.510561727429263" width="38.78215744932618" class="z"></rect><rect style="stroke: gray; fill: rgb(255, 179, 128);" x="612.5292896845783" y="305.8707557502738" height="15.021123454858355" width="24.80085611007769" class="z"></rect><rect style="stroke: gray; fill: rgb(255, 128, 128);" x="616.2148658247758" y="305.4013456423094" height="0.46941010796439286" width="0.4231587420224514" class="z"></rect><rect style="stroke: gray; fill: rgb(42, 127, 255);" x="616.2148658247758" y="304.9319355343452" height="0.46941010796422233" width="1.3701470558231676" class="z"></rect><rect style="stroke: gray; fill: rgb(113, 200, 55);" x="616.2148658247758" y="301.17665467063057" height="3.7552808637146313" width="2.0236543066082504" class="z"></rect><rect style="stroke: gray; fill: rgb(255, 212, 40);" x="616.2148658247758" y="300.70724456266623" height="0.469410107964336" width="2.14309427411456" class="z"></rect><rect style="stroke: gray; fill: rgb(255, 127, 42);" x="616.2148658247758" y="300.23783445470195" height="0.4694101079642792" width="4.35102738773287" class="z"></rect><rect style="stroke: gray; fill: rgb(255, 42, 42);" x="620.6170817700113" y="292.72727272727275" height="7.510561727429206" width="64.7313435327153" class="z"></rect><rect style="stroke: gray; fill: rgb(0, 68, 170);" x="627.4763484753785" y="292.25786261930836" height="0.46941010796439286" width="2.5372461668857795" class="z"></rect><rect style="stroke: gray; fill: rgb(68, 120, 33);" x="627.4763484753785" y="292.14051009231736" height="0.11735252699099874" width="7.144216342132381" class="z"></rect><rect style="stroke: gray; fill: rgb(212, 170, 0);" x="627.4763484753785" y="291.2016898763887" height="0.938820215928672" width="9.27707290474666" class="z"></rect><rect style="stroke: gray; fill: rgb(212, 85, 0);" x="636.7926659408772" y="283.6911281489595" height="7.510561727429206" width="62.70427665560669" class="z"></rect><rect style="stroke: gray; fill: rgb(212, 0, 0);" x="637.3557400734073" y="283.22171804099514" height="0.469410107964336" width="0.4231587420226788" class="z"></rect><rect style="stroke: gray; fill: rgb(128, 179, 255);" x="637.3557400734073" y="282.7523079330308" height="0.469410107964336" width="1.4622864593284248" class="z"></rect><rect style="stroke: gray; fill: rgb(170, 222, 135);" x="637.3557400734073" y="282.2828978250665" height="0.4694101079642792" width="2.146506844614919" class="z"></rect><rect style="stroke: gray; fill: rgb(255, 230, 128);" x="637.3557400734073" y="278.52761696135184" height="3.755280863714688" width="3.3460253754291216" class="z"></rect><rect style="stroke: gray; fill: rgb(255, 179, 128);" x="637.3557400734073" y="278.0582068533876" height="0.46941010796422233" width="4.330551964731853" class="z"></rect><rect style="stroke: gray; fill: rgb(255, 128, 128);" x="637.3557400734073" y="270.54764512595835" height="7.510561727429263" width="29.64499993508707" class="z"></rect><rect style="stroke: gray; fill: rgb(42, 127, 255);" x="641.7067674611402" y="263.03708339852915" height="7.510561727429206" width="40.0465148196439" class="z"></rect><rect style="stroke: gray; fill: rgb(113, 200, 55);" x="667.0451034249967" y="262.56767329056487" height="0.4694101079642792" width="0.421452456772613" class="z"></rect><rect style="stroke: gray; fill: rgb(255, 212, 40);" x="667.0451034249967" y="262.0982631826005" height="0.46941010796439286" width="2.538952452135959" class="z"></rect><rect style="stroke: gray; fill: rgb(255, 127, 42);" x="681.7874079857859" y="247.07713972774215" height="15.021123454858326" width="23.09798343048658" class="z"></rect><rect style="stroke: gray; fill: rgb(255, 42, 42);" x="685.3706070109777" y="246.60772961977784" height="0.4694101079643076" width="1.2848327933188557" class="z"></rect><rect style="stroke: gray; fill: rgb(0, 68, 170);" x="685.3706070109777" y="242.8524487560632" height="3.7552808637146313" width="2.0202417361082325" class="z"></rect><rect style="stroke: gray; fill: rgb(68, 120, 33);" x="685.3706070109777" y="242.38303864809893" height="0.4694101079642792" width="2.1601571266156725" class="z"></rect><rect style="stroke: gray; fill: rgb(212, 170, 0);" x="685.3706070109777" y="241.91362854013454" height="0.46941010796439286" width="4.327139394231722" class="z"></rect><rect style="stroke: gray; fill: rgb(212, 85, 0);" x="685.3706070109777" y="241.79627601314348" height="0.11735252699105558" width="7.176635761884199" class="z"></rect><rect style="stroke: gray; fill: rgb(212, 0, 0);" x="685.3706070109777" y="240.85745579721487" height="0.9388202159286152" width="9.265128907996086" class="z"></rect><rect style="stroke: gray; fill: rgb(128, 179, 255);" x="694.6869244764764" y="233.34689406978563" height="7.510561727429234" width="29.79003418134471" class="z"></rect><rect style="stroke: gray; fill: rgb(170, 222, 135);" x="699.4986488817341" y="232.87748396182135" height="0.4694101079642792" width="0.416333601022302" class="z"></rect><rect style="stroke: gray; fill: rgb(255, 230, 128);" x="699.4986488817341" y="232.408073853857" height="0.46941010796436444" width="2.5611341603870414" class="z"></rect><rect style="stroke: gray; fill: rgb(255, 179, 128);" x="702.1092653143738" y="224.89751212642776" height="7.510561727429234" width="37.73279202051992" class="z"></rect><rect style="stroke: gray; fill: rgb(255, 128, 128);" x="704.9246359770244" y="224.4281020184635" height="0.46941010796425076" width="1.3513779180724441" class="z"></rect><rect style="stroke: gray; fill: rgb(42, 127, 255);" x="704.9246359770244" y="220.67282115474882" height="3.755280863714688" width="2.016829165608101" class="z"></rect><rect style="stroke: gray; fill: rgb(113, 200, 55);" x="704.9246359770244" y="220.20341104678457" height="0.46941010796425076" width="2.146506844614919" class="z"></rect><rect style="stroke: gray; fill: rgb(255, 212, 40);" x="704.9246359770244" y="219.7340009388202" height="0.46941010796436444" width="4.374915381234246" class="z"></rect><rect style="stroke: gray; fill: rgb(255, 127, 42);" x="704.9246359770244" y="219.61664841182915" height="0.11735252699105558" width="7.173223191384068" class="z"></rect><rect style="stroke: gray; fill: rgb(255, 42, 42);" x="704.9246359770244" y="212.1060866843999" height="7.510561727429234" width="64.7586440967167" class="z"></rect><rect style="stroke: gray; fill: rgb(0, 68, 170);" x="712.1422225849108" y="204.59552495697076" height="7.510561727429149" width="63.24687536513591" class="z"></rect><rect style="stroke: gray; fill: rgb(68, 120, 33);" x="724.4786649430713" y="204.1261148490064" height="0.46941010796436444" width="0.4231587420225651" class="z"></rect><rect style="stroke: gray; fill: rgb(212, 170, 0);" x="724.4786649430713" y="203.65670474104212" height="0.4694101079642792" width="2.574784442387795" class="z"></rect><rect style="stroke: gray; fill: rgb(212, 85, 0);" x="724.4786649430713" y="202.71788452511348" height="0.9388202159286436" width="8.034897242680131" class="z"></rect><rect style="stroke: gray; fill: rgb(212, 0, 0);" x="739.8864207513961" y="187.696761070255" height="15.021123454858468" width="22.980249748230108" class="z"></rect><rect style="stroke: gray; fill: rgb(128, 179, 255);" x="762.8700830701265" y="187.22735096229076" height="0.46941010796425076" width="0.41974617152243354" class="z"></rect><rect style="stroke: gray; fill: rgb(170, 222, 135);" x="762.8700830701265" y="186.75794085432636" height="0.46941010796439286" width="1.2421756620665292" class="z"></rect><rect style="stroke: gray; fill: rgb(255, 230, 128);" x="762.8700830701265" y="183.00265999061182" height="3.755280863714546" width="2.023654306608364" class="z"></rect><rect style="stroke: gray; fill: rgb(255, 179, 128);" x="762.8700830701265" y="182.53324988264745" height="0.46941010796436444" width="2.136269133114297" class="z"></rect><rect style="stroke: gray; fill: rgb(255, 128, 128);" x="762.8700830701265" y="182.06383977468315" height="0.4694101079643076" width="4.315195397481034" class="z"></rect><rect style="stroke: gray; fill: rgb(42, 127, 255);" x="762.8700830701265" y="181.94648724769203" height="0.11735252699111243" width="7.168104335633757" class="z"></rect><rect style="stroke: gray; fill: rgb(113, 200, 55);" x="762.8700830701265" y="181.0076670317634" height="0.9388202159286436" width="8.089498370683145" class="z"></rect><rect style="stroke: gray; fill: rgb(255, 212, 40);" x="762.8700830701265" y="173.49710530433427" height="7.5105617274291205" width="29.45389598707675" class="z"></rect><rect style="stroke: gray; fill: rgb(255, 127, 42);" x="769.7293497754936" y="173.02769519636988" height="0.46941010796439286" width="2.612322717889924" class="z"></rect><rect style="stroke: gray; fill: rgb(255, 42, 42);" x="769.7293497754936" y="165.51713346894064" height="7.510561727429234" width="41.33817275396302" class="z"></rect><rect style="stroke: gray; fill: rgb(0, 68, 170);" x="775.4112796582979" y="150.4960100140823" height="15.021123454858355" width="22.572447573458362" class="z"></rect><rect style="stroke: gray; fill: rgb(68, 120, 33);" x="792.3546921917049" y="150.026599906118" height="0.4694101079642792" width="0.4146273157722362" class="z"></rect><rect style="stroke: gray; fill: rgb(212, 170, 0);" x="792.3546921917049" y="149.55718979815362" height="0.46941010796439286" width="1.2182876685652673" class="z"></rect><rect style="stroke: gray; fill: rgb(212, 85, 0);" x="792.3546921917049" y="145.80190893443907" height="3.755280863714546" width="2.0458360148595602" class="z"></rect><rect style="stroke: gray; fill: rgb(212, 0, 0);" x="792.3546921917049" y="145.3324988264747" height="0.46941010796436444" width="2.134562847864231" class="z"></rect><rect style="stroke: gray; fill: rgb(128, 179, 255);" x="794.50461160682" y="137.82193709904556" height="7.510561727429149" width="64.70916182446399" class="z"></rect><rect style="stroke: gray; fill: rgb(170, 222, 135);" x="797.9854335170063" y="137.3525269910812" height="0.46941010796436444" width="0.41974617152254723" class="z"></rect><rect style="stroke: gray; fill: rgb(255, 230, 128);" x="797.9854335170063" y="136.88311688311694" height="0.46941010796425076" width="1.2046373865645137" class="z"></rect><rect style="stroke: gray; fill: rgb(255, 179, 128);" x="797.9854335170063" y="136.41370677515255" height="0.46941010796439286" width="2.5201833143848944" class="z"></rect><rect style="stroke: gray; fill: rgb(255, 128, 128);" x="797.9854335170063" y="135.94429666718818" height="0.46941010796436444" width="4.330551964731853" class="z"></rect><rect style="stroke: gray; fill: rgb(42, 127, 255);" x="797.9854335170063" y="135.82694414019716" height="0.11735252699102716" width="7.151041483132758" class="z"></rect><rect style="stroke: gray; fill: rgb(113, 200, 55);" x="797.9854335170063" y="134.8881239242685" height="0.9388202159286436" width="8.077554373932458" class="z"></rect><rect style="stroke: gray; fill: rgb(255, 212, 40);" x="797.9854335170063" y="127.37756219683928" height="7.510561727429234" width="61.50646441004267" class="z"></rect><rect style="stroke: gray; fill: rgb(255, 127, 42);" x="806.0732256024393" y="119.86700046941013" height="7.510561727429149" width="29.537503964331222" class="z"></rect><rect style="stroke: gray; fill: rgb(255, 42, 42);" x="811.0897042377078" y="119.39759036144578" height="0.46941010796435023" width="1.3684407705732156" class="z"></rect><rect style="stroke: gray; fill: rgb(0, 68, 170);" x="811.0897042377078" y="118.92818025348149" height="0.4694101079642934" width="2.1430942741146737" class="z"></rect><rect style="stroke: gray; fill: rgb(68, 120, 33);" x="811.0897042377078" y="115.17289938976683" height="3.7552808637146597" width="6.620386770354457" class="z"></rect><rect style="stroke: gray; fill: rgb(212, 170, 0);" x="835.6602118390231" y="100.15177593490847" height="15.021123454858355" width="29.175771491311934" class="z"></rect><rect style="stroke: gray; fill: rgb(212, 85, 0);" x="859.2581368477864" y="99.68236582694409" height="0.46941010796437865" width="0.4299838830229419" class="z"></rect><rect style="stroke: gray; fill: rgb(212, 0, 0);" x="859.2581368477864" y="99.21295571897983" height="0.46941010796426497" width="1.40086019032492" class="z"></rect><rect style="stroke: gray; fill: rgb(128, 179, 255);" x="859.2581368477864" y="98.74354561101546" height="0.46941010796436444" width="2.5508964488864194" class="z"></rect><rect style="stroke: gray; fill: rgb(170, 222, 135);" x="859.2581368477864" y="98.27413550305117" height="0.4694101079642934" width="4.366383954983689" class="z"></rect><rect style="stroke: gray; fill: rgb(255, 230, 128);" x="859.2581368477864" y="98.15678297606006" height="0.11735252699111243" width="7.159572909383314" class="z"></rect><rect style="stroke: gray; fill: rgb(255, 179, 128);" x="859.2581368477864" y="97.2179627601314" height="0.9388202159286578" width="9.254891196495237" class="z"></rect><rect style="stroke: gray; fill: rgb(255, 128, 128);" x="859.5140796353" y="96.74855265216713" height="0.46941010796426497" width="2.139681703614656" class="z"></rect><rect style="stroke: gray; fill: rgb(42, 127, 255);" x="859.5140796353" y="89.23799092473789" height="7.510561727429248" width="37.847113132276036" class="z"></rect><rect style="stroke: gray; fill: rgb(113, 200, 55);" x="859.5140796353" y="85.48271006102331" height="3.7552808637145745" width="54.271814949655436" class="z"></rect><rect style="stroke: gray; fill: rgb(255, 212, 40);" x="864.8376896155851" y="85.01329995305896" height="0.46941010796435023" width="0.4231587420226788" class="z"></rect><rect style="stroke: gray; fill: rgb(255, 127, 42);" x="864.8376896155851" y="84.54388984509468" height="0.4694101079642792" width="2.1482131298650984" class="z"></rect><rect style="stroke: gray; fill: rgb(255, 42, 42);" x="864.8376896155851" y="77.03332811766546" height="7.51056172742922" width="29.866817017598805" class="z"></rect><rect style="stroke: gray; fill: rgb(0, 68, 170);" x="864.8376896155851" y="69.52276639023631" height="7.510561727429149" width="64.763762952467" class="z"></rect><rect style="stroke: gray; fill: rgb(68, 120, 33);" x="894.7318071971853" y="69.05335628227195" height="0.46941010796436444" width="0.41803988627236777" class="z"></rect><rect style="stroke: gray; fill: rgb(212, 170, 0);" x="894.7318071971853" y="68.58394617430758" height="0.46941010796436444" width="1.2763013670684131" class="z"></rect><rect style="stroke: gray; fill: rgb(212, 85, 0);" x="894.7318071971853" y="68.1145360663433" height="0.4694101079642792" width="2.15162570036523" class="z"></rect><rect style="stroke: gray; fill: rgb(212, 0, 0);" x="894.7318071971853" y="67.64512595837894" height="0.46941010796436444" width="4.296426259730197" class="z"></rect><rect style="stroke: gray; fill: rgb(128, 179, 255);" x="894.7318071971853" y="67.5277734313879" height="0.11735252699104137" width="7.164691765133625" class="z"></rect><rect style="stroke: gray; fill: rgb(170, 222, 135);" x="894.7318071971853" y="60.017211703958665" height="7.510561727429234" width="63.378259329392904" class="z"></rect><rect style="stroke: gray; fill: rgb(255, 230, 128);" x="913.8251391457075" y="44.996088249100296" height="15.021123454858369" width="22.50419616345482" class="z"></rect><rect style="stroke: gray; fill: rgb(255, 179, 128);" x="929.6424034140542" y="44.52667814113593" height="0.46941010796436444" width="2.5730781571376156" class="z"></rect><rect style="stroke: gray; fill: rgb(255, 128, 128);" x="929.6424034140542" y="43.58785792520729" height="0.9388202159286436" width="8.082673229682769" class="z"></rect><rect style="stroke: gray; fill: rgb(42, 127, 255);" x="936.3481044469132" y="43.11844781724301" height="0.4694101079642792" width="0.41803988627236777" class="z"></rect><rect style="stroke: gray; fill: rgb(113, 200, 55);" x="936.3481044469132" y="42.649037709278645" height="0.46941010796436444" width="1.3001893605695614" class="z"></rect><rect style="stroke: gray; fill: rgb(255, 212, 40);" x="936.3481044469132" y="38.89375684556407" height="3.7552808637145745" width="2.0270668771084956" class="z"></rect><rect style="stroke: gray; fill: rgb(255, 127, 42);" x="936.3481044469132" y="38.42434673759971" height="0.46941010796435734" width="2.149919415114937" class="z"></rect><rect style="stroke: gray; fill: rgb(255, 42, 42);" x="936.3481044469132" y="37.95493662963543" height="0.4694101079642863" width="4.354439958233115" class="z"></rect><rect style="stroke: gray; fill: rgb(0, 68, 170);" x="936.3481044469132" y="37.837584102644385" height="0.11735252699104137" width="7.120328348631233" class="z"></rect><rect style="stroke: gray; fill: rgb(68, 120, 33);" x="936.3481044469132" y="30.327022375215158" height="7.510561727429227" width="29.646706220337023" class="z"></rect><rect style="stroke: gray; fill: rgb(212, 170, 0);" x="936.3481044469132" y="22.816460647785927" height="7.510561727429231" width="39.2343230406002" class="z"></rect><rect style="stroke: gray; fill: rgb(212, 85, 0);" x="958.1544299430806" y="22.347050539821648" height="0.4694101079642792" width="0.4231587420225651" class="z"></rect><rect style="stroke: gray; fill: rgb(212, 0, 0);" x="958.1544299430806" y="21.877640431857284" height="0.46941010796436444" width="2.1345628478641174" class="z"></rect><rect style="stroke: gray; fill: rgb(128, 179, 255);" x="958.1544299430806" y="21.408230323893005" height="0.4694101079642792" width="2.545777593136222" class="z"></rect><rect style="stroke: gray; fill: rgb(170, 222, 135);" x="975.6097280515149" y="20.938820215928644" height="0.4694101079643609" width="0.42998388302305557" class="z"></rect><rect style="stroke: gray; fill: rgb(255, 230, 128);" x="975.6097280515149" y="20.46941010796436" height="0.46941010796428273" width="1.2234065243155783" class="z"></rect><rect style="stroke: gray; fill: rgb(255, 179, 128);" x="975.6097280515149" y="20" height="0.4694101079643609" width="4.390271948485065" class="z"></rect></svg>
