<svg width="1000" height="800" viewBox="0,0,1000,800" style="max-width: 100%; height: auto;"><defs><pattern id="linkFailurePattern" patternUnits="userSpaceOnUse" width="4" height="4"><path d="M-1,1 l2,-2 M0,4 l4,-4 M3,5 l2,-2" stroke="#FF0000" stroke-width="1"></path></pattern><pattern id="nodeFailurePattern" patternUnits="userSpaceOnUse" width="4" height="4"><path d="M-1,1 l2,-2 M0,4 l4,-4 M3,5 l2,-2" stroke="#00FF00" stroke-width="1"></path></pattern><pattern id="timeoutPattern" patternUnits="userSpaceOnUse" width="4" height="4"><path d="M-1,1 l2,-2 M0,4 l4,-4 M3,5 l2,-2" stroke="#0000FF" stroke-width="1"></path></pattern></defs><g transform="translate(0,770)" fill="none" font-size="10" font-family="sans-serif" text-anchor="middle"><path class="domain" stroke="currentColor" d="M60.5,6V0.5H980.5V6"></path><g class="tick" opacity="1" transform="translate(60.5,0)"><line stroke="currentColor" y2="6"></line><text fill="currentColor" y="9" dy="0.71em">0</text></g><g class="tick" opacity="1" transform="translate(145.81426250456707,0)"><line stroke="currentColor" y2="6"></line><text fill="currentColor" y="9" dy="0.71em">50,000</text></g><g class="tick" opacity="1" transform="translate(231.12852500913417,0)"><line stroke="currentColor" y2="6"></line><text fill="currentColor" y="9" dy="0.71em">100,000</text></g><g class="tick" opacity="1" transform="translate(316.4427875137013,0)"><line stroke="currentColor" y2="6"></line><text fill="currentColor" y="9" dy="0.71em">150,000</text></g><g class="tick" opacity="1" transform="translate(401.75705001826833,0)"><line stroke="currentColor" y2="6"></line><text fill="currentColor" y="9" dy="0.71em">200,000</text></g><g class="tick" opacity="1" transform="translate(487.07131252283546,0)"><line stroke="currentColor" y2="6"></line><text fill="currentColor" y="9" dy="0.71em">250,000</text></g><g class="tick" opacity="1" transform="translate(572.3855750274026,0)"><line stroke="currentColor" y2="6"></line><text fill="currentColor" y="9" dy="0.71em">300,000</text></g><g class="tick" opacity="1" transform="translate(657.6998375319697,0)"><line stroke="currentColor" y2="6"></line><text fill="currentColor" y="9" dy="0.71em">350,000</text></g><g class="tick" opacity="1" transform="translate(743.0141000365367,0)"><line stroke="currentColor" y2="6"></line><text fill="currentColor" y="9" dy="0.71em">400,000</text></g><g class="tick" opacity="1" transform="translate(828.3283625411038,0)"><line stroke="currentColor" y2="6"></line><text fill="currentColor" y="9" dy="0.71em">450,000</text></g><g class="tick" opacity="1" transform="translate(913.6426250456709,0)"><line stroke="currentColor" y2="6"></line><text fill="currentColor" y="9" dy="0.71em">500,000</text></g></g><g transform="translate(60,0)" fill="none" font-size="10" font-family="sans-serif" text-anchor="end"><path class="domain" stroke="currentColor" d="M-6,770.5H0.5V20.5H-6"></path><g class="tick" opacity="1" transform="translate(0,770.5)"><line stroke="currentColor" x2="-6"></line><text fill="currentColor" x="-9" dy="0.32em">0</text></g><g class="tick" opacity="1" transform="translate(0,697.1862170087977)"><line stroke="currentColor" x2="-6"></line><text fill="currentColor" x="-9" dy="0.32em">100</text></g><g class="tick" opacity="1" transform="translate(0,623.8724340175952)"><line stroke="currentColor" x2="-6"></line><text fill="currentColor" x="-9" dy="0.32em">200</text></g><g class="tick" opacity="1" transform="translate(0,550.558651026393)"><line stroke="currentColor" x2="-6"></line><text fill="currentColor" x="-9" dy="0.32em">300</text></g><g class="tick" opacity="1" transform="translate(0,477.2448680351906)"><line stroke="currentColor" x2="-6"></line><text fill="currentColor" x="-9" dy="0.32em">400</text></g><g class="tick" opacity="1" transform="translate(0,403.9310850439882)"><line stroke="currentColor" x2="-6"></line><text fill="currentColor" x="-9" dy="0.32em">500</text></g><g class="tick" opacity="1" transform="translate(0,330.61730205278593)"><line stroke="currentColor" x2="-6"></line><text fill="currentColor" x="-9" dy="0.32em">600</text></g><g class="tick" opacity="1" transform="translate(0,257.3035190615836)"><line stroke="currentColor" x2="-6"></line><text fill="currentColor" x="-9" dy="0.32em">700</text></g><g class="tick" opacity="1" transform="translate(0,183.98973607038124)"><line stroke="currentColor" x2="-6"></line><text fill="currentColor" x="-9" dy="0.32em">800</text></g><g class="tick" opacity="1" transform="translate(0,110.67595307917888)"><line stroke="currentColor" x2="-6"></line><text fill="currentColor" x="-9" dy="0.32em">900</text></g><g class="tick" opacity="1" transform="translate(0,37.36217008797652)"><line stroke="currentColor" x2="-6"></line><text fill="currentColor" x="-9" dy="0.32em">1,000</text></g></g><g></g><rect style="stroke: gray; fill: rgb(128, 179, 255);" x="60.05118855750275" y="160.76246334310855" height="10.997067448680355" width="0.418259997069633" class="z"></rect><rect style="stroke: gray; fill: rgb(170, 222, 135);" x="60.05118855750275" y="371.9061583577713" height="10.997067448680298" width="1.2880781478644465" class="z"></rect><rect style="stroke: gray; fill: rgb(255, 230, 128);" x="60.05118855750275" y="40.52785923753664" height="93.108504398827" width="2.0269303742885043" class="z"></rect><rect style="stroke: gray; fill: rgb(255, 179, 128);" x="60.05118855750275" y="360.17595307917895" height="10.997067448680298" width="2.146250901827379" class="z"></rect><rect style="stroke: gray; fill: rgb(255, 128, 128);" x="60.05118855750275" y="571.3196480938416" height="10.997067448680355" width="2.5438324279511733" class="z"></rect><rect style="stroke: gray; fill: rgb(42, 127, 255);" x="60.05118855750275" y="28.797653958944274" height="10.997067448680347" width="4.397284780862883" class="z"></rect><rect style="stroke: gray; fill: rgb(113, 200, 55);" x="60.05118855750275" y="157.82991202346037" height="2.199413489736088" width="7.157098795770629" class="z"></rect><rect style="stroke: gray; fill: rgb(255, 212, 40);" x="60.05118855750275" y="134.36950146627564" height="22.72727272727272" width="8.06695834252934" class="z"></rect><rect style="stroke: gray; fill: rgb(255, 127, 42);" x="60.05118855750275" y="583.0498533724341" height="186.9501466275659" width="29.6492656482122" class="z"></rect><rect style="stroke: gray; fill: rgb(255, 42, 42);" x="60.05118855750275" y="383.6363636363637" height="186.95014662756597" width="38.67090765102015" class="z"></rect><rect style="stroke: gray; fill: rgb(0, 68, 170);" x="60.05118855750275" y="172.49266862170091" height="186.95014662756594" width="61.30068640888157" class="z"></rect><rect style="stroke: gray; fill: rgb(68, 120, 33);" x="67.883037855422" y="580.1173020527859" height="2.1994134897360027" width="7.199670612760414" class="z"></rect><rect style="stroke: gray; fill: rgb(212, 170, 0);" x="89.74055190909209" y="571.3196480938416" height="198.68035190615842" width="24.66350014744529" class="z"></rect><rect style="stroke: gray; fill: rgb(212, 170, 0);" x="89.74055190909209" y="360.17595307917895" height="23.46041055718473" width="24.66350014744529" class="z"></rect><rect style="stroke: gray; fill: rgb(212, 170, 0);" x="89.74055190909209" y="20" height="151.7595307917889" width="24.66350014744529" class="z"></rect><rect style="stroke: gray; fill: rgb(212, 85, 0);" x="98.74973802957439" y="383.6363636363637" height="186.95014662756597" width="64.88013160652318" class="z"></rect><rect style="stroke: gray; fill: rgb(212, 0, 0);" x="114.41343662541288" y="759.0029325513196" height="10.997067448680355" width="0.4310076541730865" class="z"></rect><rect style="stroke: gray; fill: rgb(128, 179, 255);" x="114.41343662541288" y="723.8123167155426" height="10.997067448680355" width="1.4279901258014576" class="z"></rect><rect style="stroke: gray; fill: rgb(170, 222, 135);" x="114.41343662541288" y="618.240469208211" height="93.10850439882711" width="2.0315032187587576" class="z"></rect><rect style="stroke: gray; fill: rgb(255, 230, 128);" x="114.41343662541288" y="747.2727272727274" height="10.997067448680355" width="2.1439474167397776" class="z"></rect><rect style="stroke: gray; fill: rgb(255, 179, 128);" x="114.41343662541288" y="735.5425219941349" height="10.997067448680468" width="2.5336629678606357" class="z"></rect><rect style="stroke: gray; fill: rgb(255, 128, 128);" x="114.41343662541288" y="712.0821114369501" height="10.997067448680468" width="4.366895840558783" class="z"></rect><rect style="stroke: gray; fill: rgb(42, 127, 255);" x="114.41343662541288" y="591.8475073313783" height="2.1994134897361164" width="7.127494746681563" class="z"></rect><rect style="stroke: gray; fill: rgb(113, 200, 55);" x="114.41343662541288" y="594.7800586510264" height="22.727272727272748" width="9.317511865173785" class="z"></rect><rect style="stroke: gray; fill: rgb(255, 212, 40);" x="114.41343662541288" y="571.3196480938416" height="20.527859237536745" width="29.56258635750757" class="z"></rect><rect style="stroke: gray; fill: rgb(255, 212, 40);" x="114.41343662541288" y="360.17595307917895" height="23.46041055718473" width="29.56258635750757" class="z"></rect><rect style="stroke: gray; fill: rgb(255, 212, 40);" x="114.41343662541288" y="28.797653958944274" height="142.96187683284464" width="29.56258635750757" class="z"></rect><rect style="stroke: gray; fill: rgb(255, 127, 42);" x="121.37508044578558" y="313.2551319648094" height="10.997067448680298" width="0.41769862922237166" class="z"></rect><rect style="stroke: gray; fill: rgb(255, 42, 42);" x="121.37508044578558" y="184.22287390029328" height="10.997067448680355" width="1.209926870839766" class="z"></rect><rect style="stroke: gray; fill: rgb(0, 68, 170);" x="121.37508044578558" y="195.95307917888564" height="93.10850439882697" width="2.0221186498832253" class="z"></rect><rect style="stroke: gray; fill: rgb(68, 120, 33);" x="121.37508044578558" y="301.52492668621704" height="10.997067448680298" width="2.1466774731399028" class="z"></rect><rect style="stroke: gray; fill: rgb(212, 170, 0);" x="121.37508044578558" y="289.79472140762465" height="10.997067448680298" width="2.551578962986582" class="z"></rect><rect style="stroke: gray; fill: rgb(212, 85, 0);" x="121.37508044578558" y="618.240469208211" height="151.75953079178896" width="38.13308654019136" class="z"></rect><rect style="stroke: gray; fill: rgb(212, 85, 0);" x="121.37508044578558" y="324.9853372434018" height="34.457478005865084" width="38.13308654019136" class="z"></rect><rect style="stroke: gray; fill: rgb(212, 0, 0);" x="121.9381545783157" y="591.8475073313783" height="2.9325513196480415" width="4.349150473957835" class="z"></rect><rect style="stroke: gray; fill: rgb(212, 0, 0);" x="121.9381545783157" y="316.1876832844575" height="8.0645161290322" width="4.349150473957835" class="z"></rect><rect style="stroke: gray; fill: rgb(128, 179, 255);" x="123.72975409091161" y="313.2551319648094" height="2.1994134897360595" width="7.17765953303423" class="z"></rect><rect style="stroke: gray; fill: rgb(170, 222, 135);" x="123.98569687842533" y="606.5102639296188" height="10.997067448680355" width="1.2699881116429879" class="z"></rect><rect style="stroke: gray; fill: rgb(255, 230, 128);" x="124.13926255093355" y="594.7800586510264" height="11.730205278592393" width="5.547645233621978" class="z"></rect><rect style="stroke: gray; fill: rgb(255, 230, 128);" x="124.13926255093355" y="231.14369501466274" height="81.3782991202346" width="5.547645233621978" class="z"></rect><rect style="stroke: gray; fill: rgb(255, 179, 128);" x="125.31659937349656" y="606.5102639296188" height="11.73020527859228" width="8.054348894531188" class="z"></rect><rect style="stroke: gray; fill: rgb(255, 179, 128);" x="125.31659937349656" y="219.41348973607037" height="10.997067448680326" width="8.054348894531188" class="z"></rect><rect style="stroke: gray; fill: rgb(255, 128, 128);" x="144.00042286199675" y="571.3196480938416" height="46.92082111436946" width="22.932815018277665" class="z"></rect><rect style="stroke: gray; fill: rgb(255, 128, 128);" x="144.00042286199675" y="360.17595307917895" height="23.46041055718473" width="22.932815018277665" class="z"></rect><rect style="stroke: gray; fill: rgb(255, 128, 128);" x="144.00042286199675" y="20" height="304.2521994134897" width="22.932815018277665" class="z"></rect><rect style="stroke: gray; fill: rgb(42, 127, 255);" x="159.51055578532706" y="759.0029325513196" height="10.997067448680355" width="0.4217937138225807" class="z"></rect><rect style="stroke: gray; fill: rgb(113, 200, 55);" x="159.51055578532706" y="735.5425219941349" height="10.997067448680468" width="1.3189584983205975" class="z"></rect><rect style="stroke: gray; fill: rgb(255, 212, 40);" x="159.51055578532706" y="747.2727272727274" height="10.997067448680355" width="2.1560620420154066" class="z"></rect><rect style="stroke: gray; fill: rgb(255, 127, 42);" x="161.71166375794488" y="618.240469208211" height="151.75953079178896" width="62.59985199830115" class="z"></rect><rect style="stroke: gray; fill: rgb(255, 127, 42);" x="161.71166375794488" y="324.9853372434018" height="34.457478005865084" width="62.59985199830115" class="z"></rect><rect style="stroke: gray; fill: rgb(255, 42, 42);" x="163.65682894304902" y="454.0175953079179" height="93.10850439882711" width="2.0369633315590647" class="z"></rect><rect style="stroke: gray; fill: rgb(0, 68, 170);" x="163.65682894304902" y="547.8592375366569" height="10.997067448680355" width="2.5307622829354557" class="z"></rect><rect style="stroke: gray; fill: rgb(68, 120, 33);" x="163.65682894304902" y="559.5894428152493" height="10.997067448680355" width="4.4030690878607" class="z"></rect><rect style="stroke: gray; fill: rgb(212, 170, 0);" x="163.65682894304902" y="451.0850439882697" height="2.1994134897360595" width="7.1855084451846665" class="z"></rect><rect style="stroke: gray; fill: rgb(212, 85, 0);" x="163.65682894304902" y="427.624633431085" height="22.72727272727269" width="8.074994946057274" class="z"></rect><rect style="stroke: gray; fill: rgb(212, 0, 0);" x="166.98408518072713" y="380.7038123167155" height="10.997067448680355" width="0.4146273157722078" class="z"></rect><rect style="stroke: gray; fill: rgb(128, 179, 255);" x="166.98408518072713" y="571.3196480938416" height="46.92082111436946" width="29.43649187752581" class="z"></rect><rect style="stroke: gray; fill: rgb(128, 179, 255);" x="166.98408518072713" y="454.0175953079179" height="105.57184750733143" width="29.43649187752581" class="z"></rect><rect style="stroke: gray; fill: rgb(128, 179, 255);" x="166.98408518072713" y="392.4340175953079" height="34.45747800586503" width="29.43649187752581" class="z"></rect><rect style="stroke: gray; fill: rgb(170, 222, 135);" x="166.98408518072713" y="360.17595307917895" height="20.527859237536575" width="64.93609776272618" class="z"></rect><rect style="stroke: gray; fill: rgb(170, 222, 135);" x="166.98408518072713" y="157.82991202346037" height="166.4222873900293" width="64.93609776272618" class="z"></rect><rect style="stroke: gray; fill: rgb(255, 230, 128);" x="171.744621028482" y="559.5894428152493" height="11.73020527859228" width="39.5419662711918" class="z"></rect><rect style="stroke: gray; fill: rgb(255, 230, 128);" x="171.744621028482" y="427.624633431085" height="26.392961876832885" width="39.5419662711918" class="z"></rect><rect style="stroke: gray; fill: rgb(255, 230, 128);" x="171.744621028482" y="380.7038123167155" height="11.730205278592393" width="39.5419662711918" class="z"></rect><rect style="stroke: gray; fill: rgb(255, 230, 128);" x="171.744621028482" y="20" height="137.09677419354836" width="39.5419662711918" class="z"></rect><rect style="stroke: gray; fill: rgb(255, 179, 128);" x="196.46869430230552" y="594.7800586510264" height="10.997067448680355" width="0.414115430197171" class="z"></rect><rect style="stroke: gray; fill: rgb(255, 128, 128);" x="196.46869430230552" y="465.7478005865103" height="93.10850439882694" width="2.0297969335086634" class="z"></rect><rect style="stroke: gray; fill: rgb(42, 127, 255);" x="196.46869430230552" y="606.5102639296188" height="10.997067448680355" width="2.1471893587149395" class="z"></rect><rect style="stroke: gray; fill: rgb(113, 200, 55);" x="196.46869430230552" y="583.0498533724341" height="10.997067448680355" width="2.5220602281600577" class="z"></rect><rect style="stroke: gray; fill: rgb(255, 212, 40);" x="196.46869430230552" y="571.3196480938416" height="10.997067448680355" width="4.373209095984123" class="z"></rect><rect style="stroke: gray; fill: rgb(255, 127, 42);" x="211.3133759781002" y="380.7038123167155" height="237.5366568914955" width="34.96690363012186" class="z"></rect><rect style="stroke: gray; fill: rgb(255, 127, 42);" x="211.3133759781002" y="20" height="137.09677419354836" width="34.96690363012186" class="z"></rect><rect style="stroke: gray; fill: rgb(255, 42, 42);" x="224.31526958379624" y="732.6099706744868" height="10.997067448680355" width="1.2629923421175988" class="z"></rect><rect style="stroke: gray; fill: rgb(0, 68, 170);" x="224.31526958379624" y="767.8005865102639" height="2.1994134897361164" width="7.152747768382881" class="z"></rect><rect style="stroke: gray; fill: rgb(68, 120, 33);" x="224.31526958379624" y="744.3401759530791" height="22.72727272727286" width="8.06561037718177" class="z"></rect><rect style="stroke: gray; fill: rgb(212, 170, 0);" x="231.94236465170454" y="310.3225806451613" height="10.997067448680298" width="0.4419278797736297" class="z"></rect><rect style="stroke: gray; fill: rgb(212, 85, 0);" x="231.94236465170454" y="216.48093841642228" height="93.10850439882697" width="2.0253605918584014" class="z"></rect><rect style="stroke: gray; fill: rgb(212, 0, 0);" x="231.94236465170454" y="204.7507331378299" height="10.997067448680355" width="2.144800559364768" class="z"></rect><rect style="stroke: gray; fill: rgb(128, 179, 255);" x="231.94236465170454" y="181.29032258064518" height="10.997067448680355" width="2.5730781571377577" class="z"></rect><rect style="stroke: gray; fill: rgb(170, 222, 135);" x="231.94236465170454" y="193.02052785923755" height="10.997067448680355" width="4.356146243483181" class="z"></rect><rect style="stroke: gray; fill: rgb(255, 230, 128);" x="231.94236465170454" y="767.8005865102639" height="2.1994134897361164" width="29.631349653086232" class="z"></rect><rect style="stroke: gray; fill: rgb(255, 230, 128);" x="231.94236465170454" y="618.240469208211" height="126.09970674486806" width="29.631349653086232" class="z"></rect><rect style="stroke: gray; fill: rgb(255, 230, 128);" x="231.94236465170454" y="322.0527859237536" height="57.91788856304987" width="29.631349653086232" class="z"></rect><rect style="stroke: gray; fill: rgb(255, 179, 128);" x="236.34458059694018" y="744.3401759530791" height="23.460410557184787" width="39.83834801913267" class="z"></rect><rect style="stroke: gray; fill: rgb(255, 179, 128);" x="236.34458059694018" y="157.82991202346037" height="163.4897360703812" width="39.83834801913267" class="z"></rect><rect style="stroke: gray; fill: rgb(255, 128, 128);" x="246.32634930997455" y="418.82697947214075" height="10.997067448680298" width="1.344552777071982" class="z"></rect><rect style="stroke: gray; fill: rgb(42, 127, 255);" x="246.32634930997455" y="430.55718475073314" height="186.95014662756597" width="60.858076015007896" class="z"></rect><rect style="stroke: gray; fill: rgb(113, 200, 55);" x="247.70844036254852" y="380.7038123167155" height="49.853372434017615" width="64.6596795522114" class="z"></rect><rect style="stroke: gray; fill: rgb(113, 200, 55);" x="247.70844036254852" y="20" height="137.09677419354836" width="64.6596795522114" class="z"></rect><rect style="stroke: gray; fill: rgb(255, 212, 40);" x="261.58053944579115" y="720.8797653958944" height="10.997067448680355" width="0.4197461715224904" class="z"></rect><rect style="stroke: gray; fill: rgb(255, 127, 42);" x="261.58053944579115" y="685.6891495601172" height="10.997067448680468" width="2.146506844614862" class="z"></rect><rect style="stroke: gray; fill: rgb(255, 42, 42);" x="261.58053944579115" y="767.8005865102639" height="2.1994134897361164" width="2.5253021701351486" class="z"></rect><rect style="stroke: gray; fill: rgb(255, 42, 42);" x="261.58053944579115" y="735.5425219941349" height="8.064516129032313" width="2.5253021701351486" class="z"></rect><rect style="stroke: gray; fill: rgb(0, 68, 170);" x="261.58053944579115" y="342.58064516129025" height="10.997067448680468" width="4.65303987699906" class="z"></rect><rect style="stroke: gray; fill: rgb(68, 120, 33);" x="261.58053944579115" y="618.240469208211" height="67.4486803519062" width="5.767244145308723" class="z"></rect><rect style="stroke: gray; fill: rgb(68, 120, 33);" x="261.58053944579115" y="354.3108504398827" height="25.65982404692079" width="5.767244145308723" class="z"></rect><rect style="stroke: gray; fill: rgb(212, 170, 0);" x="261.58053944579115" y="732.6099706744868" height="2.1994134897361164" width="7.173223191384011" class="z"></rect><rect style="stroke: gray; fill: rgb(212, 85, 0);" x="261.58053944579115" y="697.4193548387096" height="22.72727272727286" width="8.063904091931704" class="z"></rect><rect style="stroke: gray; fill: rgb(212, 0, 0);" x="276.2204668915748" y="618.240469208211" height="151.75953079178896" width="23.823154661775334" class="z"></rect><rect style="stroke: gray; fill: rgb(212, 0, 0);" x="276.2204668915748" y="157.82991202346037" height="222.14076246334312" width="23.823154661775334" class="z"></rect><rect style="stroke: gray; fill: rgb(128, 179, 255);" x="300.07433468785183" y="322.0527859237536" height="10.997067448680355" width="0.41803988627236777" class="z"></rect><rect style="stroke: gray; fill: rgb(170, 222, 135);" x="300.07433468785183" y="759.0029325513196" height="10.997067448680355" width="1.2916579343191188" class="z"></rect><rect style="stroke: gray; fill: rgb(255, 230, 128);" x="300.07433468785183" y="204.7507331378299" height="93.10850439882694" width="2.0168291656079873" class="z"></rect><rect style="stroke: gray; fill: rgb(255, 179, 128);" x="300.07433468785183" y="298.5923753665689" height="10.997067448680355" width="2.146506844614862" class="z"></rect><rect style="stroke: gray; fill: rgb(255, 128, 128);" x="300.07433468785183" y="310.3225806451613" height="10.997067448680298" width="2.569665586637541" class="z"></rect><rect style="stroke: gray; fill: rgb(42, 127, 255);" x="300.07433468785183" y="193.02052785923755" height="10.997067448680355" width="4.438047935487532" class="z"></rect><rect style="stroke: gray; fill: rgb(113, 200, 55);" x="300.07433468785183" y="190.08797653958948" height="2.1994134897360595" width="7.142510056882372" class="z"></rect><rect style="stroke: gray; fill: rgb(255, 212, 40);" x="300.07433468785183" y="618.240469208211" height="140.7624633431086" width="29.62623079733595" class="z"></rect><rect style="stroke: gray; fill: rgb(255, 212, 40);" x="300.07433468785183" y="333.782991202346" height="46.18768328445748" width="29.62623079733595" class="z"></rect><rect style="stroke: gray; fill: rgb(255, 127, 42);" x="307.1895441807327" y="310.3225806451613" height="10.997067448680298" width="0.4197461715224904" class="z"></rect><rect style="stroke: gray; fill: rgb(255, 42, 42);" x="307.1895441807327" y="430.55718475073314" height="11.730205278592337" width="8.268658321942667" class="z"></rect><rect style="stroke: gray; fill: rgb(255, 42, 42);" x="307.1895441807327" y="322.0527859237536" height="10.997067448680355" width="8.268658321942667" class="z"></rect><rect style="stroke: gray; fill: rgb(0, 68, 170);" x="307.1895441807327" y="759.0029325513196" height="10.997067448680355" width="38.3914181270552" class="z"></rect><rect style="stroke: gray; fill: rgb(0, 68, 170);" x="307.1895441807327" y="442.2873900293255" height="175.21994134897363" width="38.3914181270552" class="z"></rect><rect style="stroke: gray; fill: rgb(68, 120, 33);" x="315.4820904961766" y="380.7038123167155" height="61.58357771260995" width="23.19012283399144" class="z"></rect><rect style="stroke: gray; fill: rgb(68, 120, 33);" x="315.4820904961766" y="20" height="313.049853372434" width="23.19012283399144" class="z"></rect><rect style="stroke: gray; fill: rgb(212, 170, 0);" x="329.7125094819384" y="366.0410557184751" height="10.997067448680355" width="0.4760535847754568" class="z"></rect><rect style="stroke: gray; fill: rgb(212, 85, 0);" x="329.7125094819384" y="747.2727272727274" height="10.997067448680355" width="1.3786784820737807" class="z"></rect><rect style="stroke: gray; fill: rgb(212, 0, 0);" x="329.7125094819384" y="627.0381231671554" height="93.10850439882711" width="2.01853545085811" class="z"></rect><rect style="stroke: gray; fill: rgb(128, 179, 255);" x="329.7125094819384" y="732.6099706744868" height="10.997067448680355" width="2.1328565626141653" class="z"></rect><rect style="stroke: gray; fill: rgb(170, 222, 135);" x="329.7125094819384" y="618.240469208211" height="8.797653958944352" width="2.5935535801388028" class="z"></rect><rect style="stroke: gray; fill: rgb(170, 222, 135);" x="329.7125094819384" y="377.77126099706743" height="2.1994134897360595" width="2.5935535801388028" class="z"></rect><rect style="stroke: gray; fill: rgb(255, 230, 128);" x="329.7125094819384" y="720.8797653958944" height="10.997067448680355" width="4.351027387732927" class="z"></rect><rect style="stroke: gray; fill: rgb(255, 179, 128);" x="329.7125094819384" y="744.3401759530791" height="2.19941348973623" width="7.176635761884256" class="z"></rect><rect style="stroke: gray; fill: rgb(255, 128, 128);" x="336.9300960898248" y="618.240469208211" height="140.7624633431086" width="64.84395835922123" class="z"></rect><rect style="stroke: gray; fill: rgb(255, 128, 128);" x="336.9300960898248" y="333.782991202346" height="46.18768328445748" width="64.84395835922123" class="z"></rect><rect style="stroke: gray; fill: rgb(42, 127, 255);" x="338.7216956024207" y="160.76246334310855" height="10.997067448680355" width="1.313839642570315" class="z"></rect><rect style="stroke: gray; fill: rgb(113, 200, 55);" x="338.7216956024207" y="172.49266862170091" height="10.997067448680326" width="2.1550382708653615" class="z"></rect><rect style="stroke: gray; fill: rgb(255, 212, 40);" x="338.7216956024207" y="418.82697947214075" height="22.72727272727269" width="9.215646635743326" class="z"></rect><rect style="stroke: gray; fill: rgb(255, 127, 42);" x="338.7216956024207" y="380.7038123167155" height="38.12316715542522" width="59.89573113395636" class="z"></rect><rect style="stroke: gray; fill: rgb(255, 127, 42);" x="338.7216956024207" y="184.22287390029328" height="148.8269794721407" width="59.89573113395636" class="z"></rect><rect style="stroke: gray; fill: rgb(255, 42, 42);" x="345.6321508652906" y="172.49266862170091" height="10.997067448680326" width="0.4231587420226788" class="z"></rect><rect style="stroke: gray; fill: rgb(0, 68, 170);" x="345.6321508652906" y="40.52785923753664" height="10.997067448680347" width="1.2814202228186673" class="z"></rect><rect style="stroke: gray; fill: rgb(68, 120, 33);" x="345.6321508652906" y="78.65102639296191" height="93.108504398827" width="2.028773162358675" class="z"></rect><rect style="stroke: gray; fill: rgb(212, 170, 0);" x="345.6321508652906" y="66.92082111436955" height="10.99706744868034" width="2.523595884885083" class="z"></rect><rect style="stroke: gray; fill: rgb(212, 85, 0);" x="345.6321508652906" y="55.190615835777095" height="10.99706744868034" width="4.354439958233115" class="z"></rect><rect style="stroke: gray; fill: rgb(212, 0, 0);" x="345.6321508652906" y="52.258064516129004" height="2.1994134897360667" width="7.111796922380734" class="z"></rect><rect style="stroke: gray; fill: rgb(128, 179, 255);" x="345.6321508652906" y="759.0029325513196" height="10.997067448680355" width="29.93677471285264" class="z"></rect><rect style="stroke: gray; fill: rgb(128, 179, 255);" x="345.6321508652906" y="442.2873900293255" height="175.21994134897363" width="29.93677471285264" class="z"></rect><rect style="stroke: gray; fill: rgb(170, 222, 135);" x="375.5774570043937" y="759.0029325513196" height="10.997067448680355" width="23.326625653998747" class="z"></rect><rect style="stroke: gray; fill: rgb(170, 222, 135);" x="375.5774570043937" y="418.82697947214075" height="199.4134897360703" width="23.326625653998747" class="z"></rect><rect style="stroke: gray; fill: rgb(170, 222, 135);" x="375.5774570043937" y="20" height="163.48973607038124" width="23.326625653998747" class="z"></rect><rect style="stroke: gray; fill: rgb(255, 230, 128);" x="398.6634964381296" y="380.7038123167155" height="38.12316715542522" width="38.12353134279084" class="z"></rect><rect style="stroke: gray; fill: rgb(255, 230, 128);" x="398.6634964381296" y="184.22287390029328" height="148.8269794721407" width="38.12353134279084" class="z"></rect><rect style="stroke: gray; fill: rgb(255, 179, 128);" x="398.91943922564326" y="759.0029325513196" height="10.997067448680355" width="0.4299838830229987" class="z"></rect><rect style="stroke: gray; fill: rgb(255, 128, 128);" x="398.91943922564326" y="606.5102639296188" height="10.997067448680355" width="1.3377276360716337" class="z"></rect><rect style="stroke: gray; fill: rgb(42, 127, 255);" x="398.91943922564326" y="571.3196480938416" height="10.997067448680355" width="2.146506844614919" class="z"></rect><rect style="stroke: gray; fill: rgb(113, 200, 55);" x="398.91943922564326" y="454.0175953079179" height="10.997067448680298" width="2.5781970128879834" class="z"></rect><rect style="stroke: gray; fill: rgb(255, 212, 40);" x="398.91943922564326" y="465.7478005865103" height="10.997067448680298" width="4.327139394231665" class="z"></rect><rect style="stroke: gray; fill: rgb(255, 127, 42);" x="398.91943922564326" y="477.47800586510266" height="93.108504398827" width="5.2331768620301204" class="z"></rect><rect style="stroke: gray; fill: rgb(255, 42, 42);" x="398.91943922564326" y="451.0850439882697" height="2.1994134897360595" width="7.12544720438143" class="z"></rect><rect style="stroke: gray; fill: rgb(0, 68, 170);" x="398.91943922564326" y="583.0498533724341" height="22.727272727272634" width="8.777131326469828" class="z"></rect><rect style="stroke: gray; fill: rgb(68, 120, 33);" x="398.91943922564326" y="418.82697947214075" height="32.25806451612897" width="29.575042239833238" class="z"></rect><rect style="stroke: gray; fill: rgb(68, 120, 33);" x="398.91943922564326" y="28.797653958944274" height="154.69208211143697" width="29.575042239833238" class="z"></rect><rect style="stroke: gray; fill: rgb(212, 170, 0);" x="401.78599844579674" y="368.9736070381232" height="10.997067448680298" width="0.43680902402331867" class="z"></rect><rect style="stroke: gray; fill: rgb(212, 85, 0);" x="401.78599844579674" y="606.5102639296188" height="163.48973607038124" width="121.8577737057733" class="z"></rect><rect style="stroke: gray; fill: rgb(212, 85, 0);" x="401.78599844579674" y="571.3196480938416" height="11.730205278592507" width="121.8577737057733" class="z"></rect><rect style="stroke: gray; fill: rgb(212, 85, 0);" x="401.78599844579674" y="454.0175953079179" height="10.997067448680298" width="121.8577737057733" class="z"></rect><rect style="stroke: gray; fill: rgb(212, 0, 0);" x="428.50642546222707" y="583.0498533724341" height="23.460410557184673" width="78.87815454122256" class="z"></rect><rect style="stroke: gray; fill: rgb(212, 0, 0);" x="428.50642546222707" y="465.7478005865103" height="105.57184750733126" width="78.87815454122256" class="z"></rect><rect style="stroke: gray; fill: rgb(212, 0, 0);" x="428.50642546222707" y="418.82697947214075" height="35.19061583577712" width="78.87815454122256" class="z"></rect><rect style="stroke: gray; fill: rgb(212, 0, 0);" x="428.50642546222707" y="333.782991202346" height="46.92082111436952" width="78.87815454122256" class="z"></rect><rect style="stroke: gray; fill: rgb(212, 0, 0);" x="428.50642546222707" y="20" height="163.48973607038124" width="78.87815454122256" class="z"></rect><rect style="stroke: gray; fill: rgb(128, 179, 255);" x="436.79897177767106" y="407.0967741935484" height="10.997067448680298" width="1.3155459278204376" class="z"></rect><rect style="stroke: gray; fill: rgb(170, 222, 135);" x="436.79897177767106" y="395.366568914956" height="10.997067448680298" width="2.1448005593647963" class="z"></rect><rect style="stroke: gray; fill: rgb(255, 230, 128);" x="436.79897177767106" y="383.6363636363637" height="10.997067448680298" width="4.373209095984066" class="z"></rect><rect style="stroke: gray; fill: rgb(255, 179, 128);" x="441.2011877229067" y="380.7038123167155" height="38.12316715542522" width="64.81153893946947" class="z"></rect><rect style="stroke: gray; fill: rgb(255, 179, 128);" x="441.2011877229067" y="184.22287390029328" height="148.8269794721407" width="64.81153893946947" class="z"></rect><rect style="stroke: gray; fill: rgb(255, 128, 128);" x="506.0570900788786" y="239.941348973607" height="10.997067448680355" width="0.4316901682730645" class="z"></rect><rect style="stroke: gray; fill: rgb(42, 127, 255);" x="506.0570900788786" y="380.7038123167155" height="38.12316715542522" width="2.0219480213582415" class="z"></rect><rect style="stroke: gray; fill: rgb(42, 127, 255);" x="506.0570900788786" y="278.0645161290323" height="54.98533724340166" width="2.0219480213582415" class="z"></rect><rect style="stroke: gray; fill: rgb(113, 200, 55);" x="506.0570900788786" y="228.21114369501464" height="10.997067448680355" width="2.5474838783863447" class="z"></rect><rect style="stroke: gray; fill: rgb(255, 212, 40);" x="506.0570900788786" y="275.13196480938416" height="2.1994134897360595" width="7.190286043884896" class="z"></rect><rect style="stroke: gray; fill: rgb(255, 127, 42);" x="506.0570900788786" y="251.67155425219937" height="22.727272727272748" width="8.053666380431139" class="z"></rect><rect style="stroke: gray; fill: rgb(255, 42, 42);" x="507.3879925739499" y="28.797653958944274" height="10.997067448680347" width="0.4248650272726877" class="z"></rect><rect style="stroke: gray; fill: rgb(0, 68, 170);" x="507.3879925739499" y="40.52785923753664" height="10.997067448680347" width="1.4605801740781885" class="z"></rect><rect style="stroke: gray; fill: rgb(68, 120, 33);" x="507.3879925739499" y="63.98826979472137" height="10.997067448680433" width="2.141387988864608" class="z"></rect><rect style="stroke: gray; fill: rgb(212, 170, 0);" x="507.3879925739499" y="52.258064516129004" height="10.997067448680347" width="4.3715028107339435" class="z"></rect><rect style="stroke: gray; fill: rgb(212, 85, 0);" x="507.3879925739499" y="583.0498533724341" height="23.460410557184673" width="29.593811377584302" class="z"></rect><rect style="stroke: gray; fill: rgb(212, 85, 0);" x="507.3879925739499" y="465.7478005865103" height="105.57184750733126" width="29.593811377584302" class="z"></rect><rect style="stroke: gray; fill: rgb(212, 85, 0);" x="507.3879925739499" y="418.82697947214075" height="35.19061583577712" width="29.593811377584302" class="z"></rect><rect style="stroke: gray; fill: rgb(212, 85, 0);" x="507.3879925739499" y="357.2434017595308" height="22.72727272727269" width="29.593811377584302" class="z"></rect><rect style="stroke: gray; fill: rgb(212, 0, 0);" x="507.3879925739499" y="333.782991202346" height="23.460410557184787" width="37.44613609850467" class="z"></rect><rect style="stroke: gray; fill: rgb(212, 0, 0);" x="507.3879925739499" y="239.941348973607" height="11.730205278592365" width="37.44613609850467" class="z"></rect><rect style="stroke: gray; fill: rgb(212, 0, 0);" x="507.3879925739499" y="75.71847507331381" height="151.75953079178882" width="37.44613609850467" class="z"></rect><rect style="stroke: gray; fill: rgb(128, 179, 255);" x="509.2307806440485" y="407.0967741935484" height="10.997067448680298" width="0.42486502727274456" class="z"></rect><rect style="stroke: gray; fill: rgb(170, 222, 135);" x="509.6914776615732" y="407.0967741935484" height="10.997067448680298" width="2.1482131298649847" class="z"></rect><rect style="stroke: gray; fill: rgb(255, 230, 128);" x="509.94742044908685" y="395.366568914956" height="10.997067448680298" width="2.5133581733846313" class="z"></rect><rect style="stroke: gray; fill: rgb(255, 179, 128);" x="511.58545428917455" y="380.7038123167155" height="14.662756598240492" width="26.165884310150773" class="z"></rect><rect style="stroke: gray; fill: rgb(255, 179, 128);" x="511.58545428917455" y="278.0645161290323" height="55.7184750733137" width="26.165884310150773" class="z"></rect><rect style="stroke: gray; fill: rgb(255, 179, 128);" x="511.58545428917455" y="228.21114369501464" height="11.730205278592365" width="26.165884310150773" class="z"></rect><rect style="stroke: gray; fill: rgb(255, 179, 128);" x="511.58545428917455" y="63.98826979472137" height="10.997067448680433" width="26.165884310150773" class="z"></rect><rect style="stroke: gray; fill: rgb(255, 128, 128);" x="512.3020940942129" y="407.0967741935484" height="10.997067448680298" width="2.146506844614919" class="z"></rect><rect style="stroke: gray; fill: rgb(42, 127, 255);" x="513.0187338992513" y="395.366568914956" height="10.997067448680298" width="0.41974617152243354" class="z"></rect><rect style="stroke: gray; fill: rgb(113, 200, 55);" x="513.5818080317814" y="404.16422287390026" height="2.1994134897360595" width="7.156160338883069" class="z"></rect><rect style="stroke: gray; fill: rgb(255, 212, 40);" x="514.5032020668307" y="407.0967741935484" height="10.997067448680298" width="0.421452456772613" class="z"></rect><rect style="stroke: gray; fill: rgb(255, 127, 42);" x="514.7079562968416" y="395.366568914956" height="8.797653958944238" width="2.1413879888647216" class="z"></rect><rect style="stroke: gray; fill: rgb(255, 127, 42);" x="514.7079562968416" y="275.13196480938416" height="2.1994134897360595" width="2.1413879888647216" class="z"></rect><rect style="stroke: gray; fill: rgb(255, 42, 42);" x="514.8103334118472" y="263.4017595307918" height="10.997067448680298" width="1.3462590623220194" class="z"></rect><rect style="stroke: gray; fill: rgb(0, 68, 170);" x="516.038858791913" y="407.0967741935484" height="10.997067448680298" width="4.320314253231231" class="z"></rect><rect style="stroke: gray; fill: rgb(68, 120, 33);" x="516.2436130219239" y="263.4017595307918" height="10.997067448680298" width="1.336021350821511" class="z"></rect><rect style="stroke: gray; fill: rgb(212, 170, 0);" x="517.984023977017" y="395.366568914956" height="8.797653958944238" width="0.42998388302305557" class="z"></rect><rect style="stroke: gray; fill: rgb(212, 170, 0);" x="517.984023977017" y="275.13196480938416" height="2.1994134897360595" width="0.42998388302305557" class="z"></rect><rect style="stroke: gray; fill: rgb(212, 85, 0);" x="523.6659538598212" y="606.5102639296188" height="163.48973607038124" width="64.97363603822828" class="z"></rect><rect style="stroke: gray; fill: rgb(212, 85, 0);" x="523.6659538598212" y="571.3196480938416" height="11.730205278592507" width="64.97363603822828" class="z"></rect><rect style="stroke: gray; fill: rgb(212, 85, 0);" x="523.6659538598212" y="454.0175953079179" height="10.997067448680298" width="64.97363603822828" class="z"></rect><rect style="stroke: gray; fill: rgb(212, 0, 0);" x="537.7939957305775" y="583.0498533724341" height="23.460410557184673" width="48.789520441111904" class="z"></rect><rect style="stroke: gray; fill: rgb(212, 0, 0);" x="537.7939957305775" y="465.7478005865103" height="105.57184750733126" width="48.789520441111904" class="z"></rect><rect style="stroke: gray; fill: rgb(212, 0, 0);" x="537.7939957305775" y="357.2434017595308" height="96.77419354838707" width="48.789520441111904" class="z"></rect><rect style="stroke: gray; fill: rgb(212, 0, 0);" x="537.7939957305775" y="251.67155425219937" height="82.11143695014664" width="48.789520441111904" class="z"></rect><rect style="stroke: gray; fill: rgb(212, 0, 0);" x="537.7939957305775" y="228.21114369501464" height="11.730205278592365" width="48.789520441111904" class="z"></rect><rect style="stroke: gray; fill: rgb(212, 0, 0);" x="537.7939957305775" y="20" height="54.9853372434018" width="48.789520441111904" class="z"></rect><rect style="stroke: gray; fill: rgb(128, 179, 255);" x="544.8580166659558" y="216.48093841642228" height="10.997067448680355" width="0.42657131252281033" class="z"></rect><rect style="stroke: gray; fill: rgb(170, 222, 135);" x="544.8580166659558" y="239.941348973607" height="10.997067448680355" width="1.291657934319005" class="z"></rect><rect style="stroke: gray; fill: rgb(255, 230, 128);" x="544.8580166659558" y="204.7507331378299" height="10.997067448680355" width="2.1448005593646258" class="z"></rect><rect style="stroke: gray; fill: rgb(255, 179, 128);" x="544.8580166659558" y="178.3577712609971" height="10.997067448680326" width="2.57137187188755" class="z"></rect><rect style="stroke: gray; fill: rgb(255, 128, 128);" x="544.8580166659558" y="193.02052785923755" height="10.997067448680355" width="4.325433108981429" class="z"></rect><rect style="stroke: gray; fill: rgb(42, 127, 255);" x="544.8580166659558" y="190.08797653958948" height="2.1994134897360595" width="7.152747768382824" class="z"></rect><rect style="stroke: gray; fill: rgb(113, 200, 55);" x="544.8580166659558" y="333.782991202346" height="22.727272727272748" width="8.519482253706087" class="z"></rect><rect style="stroke: gray; fill: rgb(255, 212, 40);" x="553.4065057689133" y="333.782991202346" height="23.460410557184787" width="59.09207078116333" class="z"></rect><rect style="stroke: gray; fill: rgb(255, 212, 40);" x="553.4065057689133" y="239.941348973607" height="11.730205278592365" width="59.09207078116333" class="z"></rect><rect style="stroke: gray; fill: rgb(255, 212, 40);" x="553.4065057689133" y="75.71847507331381" height="151.75953079178882" width="59.09207078116333" class="z"></rect><rect style="stroke: gray; fill: rgb(255, 127, 42);" x="586.6278795881918" y="583.0498533724341" height="23.460410557184673" width="5.832082984812132" class="z"></rect><rect style="stroke: gray; fill: rgb(255, 127, 42);" x="586.6278795881918" y="500.9384164222874" height="69.64809384164226" width="5.832082984812132" class="z"></rect><rect style="stroke: gray; fill: rgb(255, 42, 42);" x="586.6278795881918" y="465.7478005865103" height="35.190615835777066" width="29.55627310208206" class="z"></rect><rect style="stroke: gray; fill: rgb(255, 42, 42);" x="586.6278795881918" y="357.2434017595308" height="96.77419354838707" width="29.55627310208206" class="z"></rect><rect style="stroke: gray; fill: rgb(255, 42, 42);" x="586.6278795881918" y="278.0645161290323" height="54.98533724340166" width="29.55627310208206" class="z"></rect><rect style="stroke: gray; fill: rgb(0, 68, 170);" x="588.6754218883013" y="266.3343108504399" height="10.997067448680298" width="0.421452456772613" class="z"></rect><rect style="stroke: gray; fill: rgb(68, 120, 33);" x="588.6754218883013" y="251.67155425219937" height="2.9325513196481836" width="1.2711825113181021" class="z"></rect><rect style="stroke: gray; fill: rgb(68, 120, 33);" x="588.6754218883013" y="231.14369501466274" height="8.064516129032256" width="1.2711825113181021" class="z"></rect><rect style="stroke: gray; fill: rgb(212, 170, 0);" x="588.6754218883013" y="28.797653958944274" height="10.997067448680347" width="2.1311502773640996" class="z"></rect><rect style="stroke: gray; fill: rgb(212, 85, 0);" x="588.6754218883013" y="63.98826979472137" height="10.997067448680433" width="2.5713718718876635" class="z"></rect><rect style="stroke: gray; fill: rgb(212, 0, 0);" x="588.6754218883013" y="254.60410557184755" height="10.997067448680326" width="4.368090240233869" class="z"></rect><rect style="stroke: gray; fill: rgb(128, 179, 255);" x="588.6754218883013" y="228.21114369501464" height="2.1994134897360595" width="7.176635761884199" class="z"></rect><rect style="stroke: gray; fill: rgb(170, 222, 135);" x="588.6754218883013" y="40.52785923753664" height="22.727272727272712" width="8.069022947682015" class="z"></rect><rect style="stroke: gray; fill: rgb(255, 230, 128);" x="588.6754218883013" y="606.5102639296188" height="163.48973607038124" width="38.78215744932618" class="z"></rect><rect style="stroke: gray; fill: rgb(255, 230, 128);" x="588.6754218883013" y="571.3196480938416" height="11.730205278592507" width="38.78215744932618" class="z"></rect><rect style="stroke: gray; fill: rgb(255, 230, 128);" x="588.6754218883013" y="454.0175953079179" height="10.997067448680298" width="38.78215744932618" class="z"></rect><rect style="stroke: gray; fill: rgb(255, 179, 128);" x="612.5292896845783" y="583.0498533724341" height="23.460410557184673" width="24.80085611007769" class="z"></rect><rect style="stroke: gray; fill: rgb(255, 179, 128);" x="612.5292896845783" y="500.9384164222874" height="70.38123167155419" width="24.80085611007769" class="z"></rect><rect style="stroke: gray; fill: rgb(255, 179, 128);" x="612.5292896845783" y="333.782991202346" height="23.460410557184787" width="24.80085611007769" class="z"></rect><rect style="stroke: gray; fill: rgb(255, 179, 128);" x="612.5292896845783" y="20" height="257.3313782991202" width="24.80085611007769" class="z"></rect><rect style="stroke: gray; fill: rgb(255, 128, 128);" x="616.2148658247758" y="477.47800586510266" height="10.997067448680298" width="0.4231587420224514" class="z"></rect><rect style="stroke: gray; fill: rgb(42, 127, 255);" x="616.2148658247758" y="489.20821114369505" height="10.997067448680298" width="1.3701470558231676" class="z"></rect><rect style="stroke: gray; fill: rgb(113, 200, 55);" x="616.2148658247758" y="360.17595307917895" height="93.10850439882682" width="2.0236543066082504" class="z"></rect><rect style="stroke: gray; fill: rgb(255, 212, 40);" x="616.2148658247758" y="465.7478005865103" height="10.997067448680298" width="2.14309427411456" class="z"></rect><rect style="stroke: gray; fill: rgb(255, 127, 42);" x="616.2148658247758" y="357.2434017595308" height="2.932551319648155" width="4.35102738773287" class="z"></rect><rect style="stroke: gray; fill: rgb(255, 127, 42);" x="616.2148658247758" y="324.9853372434018" height="8.0645161290322" width="4.35102738773287" class="z"></rect><rect style="stroke: gray; fill: rgb(255, 42, 42);" x="620.6170817700113" y="465.7478005865103" height="35.190615835777066" width="64.7313435327153" class="z"></rect><rect style="stroke: gray; fill: rgb(255, 42, 42);" x="620.6170817700113" y="357.2434017595308" height="96.77419354838707" width="64.7313435327153" class="z"></rect><rect style="stroke: gray; fill: rgb(255, 42, 42);" x="620.6170817700113" y="278.0645161290323" height="54.98533724340166" width="64.7313435327153" class="z"></rect><rect style="stroke: gray; fill: rgb(0, 68, 170);" x="627.4763484753785" y="735.5425219941349" height="10.997067448680468" width="2.5372461668857795" class="z"></rect><rect style="stroke: gray; fill: rgb(68, 120, 33);" x="627.4763484753785" y="732.6099706744868" height="2.1994134897361164" width="7.144216342132381" class="z"></rect><rect style="stroke: gray; fill: rgb(212, 170, 0);" x="627.4763484753785" y="747.2727272727274" height="22.727272727272634" width="9.27707290474666" class="z"></rect><rect style="stroke: gray; fill: rgb(212, 85, 0);" x="636.7926659408772" y="606.5102639296188" height="163.48973607038124" width="62.70427665560669" class="z"></rect><rect style="stroke: gray; fill: rgb(212, 85, 0);" x="636.7926659408772" y="571.3196480938416" height="11.730205278592507" width="62.70427665560669" class="z"></rect><rect style="stroke: gray; fill: rgb(212, 85, 0);" x="636.7926659408772" y="454.0175953079179" height="10.997067448680298" width="62.70427665560669" class="z"></rect><rect style="stroke: gray; fill: rgb(212, 0, 0);" x="637.3557400734073" y="594.7800586510264" height="10.997067448680355" width="0.4231587420226788" class="z"></rect><rect style="stroke: gray; fill: rgb(128, 179, 255);" x="637.3557400734073" y="254.60410557184755" height="10.997067448680326" width="1.4622864593284248" class="z"></rect><rect style="stroke: gray; fill: rgb(170, 222, 135);" x="637.3557400734073" y="266.3343108504399" height="10.997067448680298" width="2.146506844614919" class="z"></rect><rect style="stroke: gray; fill: rgb(255, 230, 128);" x="637.3557400734073" y="583.0498533724341" height="11.73020527859228" width="3.3460253754291216" class="z"></rect><rect style="stroke: gray; fill: rgb(255, 230, 128);" x="637.3557400734073" y="500.9384164222874" height="70.38123167155419" width="3.3460253754291216" class="z"></rect><rect style="stroke: gray; fill: rgb(255, 230, 128);" x="637.3557400734073" y="345.51319648093835" height="10.997067448680411" width="3.3460253754291216" class="z"></rect><rect style="stroke: gray; fill: rgb(255, 179, 128);" x="637.3557400734073" y="333.782991202346" height="10.997067448680298" width="4.330551964731853" class="z"></rect><rect style="stroke: gray; fill: rgb(255, 128, 128);" x="637.3557400734073" y="66.92082111436955" height="186.95014662756589" width="29.64499993508707" class="z"></rect><rect style="stroke: gray; fill: rgb(42, 127, 255);" x="641.7067674611402" y="583.0498533724341" height="23.460410557184673" width="40.0465148196439" class="z"></rect><rect style="stroke: gray; fill: rgb(42, 127, 255);" x="641.7067674611402" y="500.9384164222874" height="70.38123167155419" width="40.0465148196439" class="z"></rect><rect style="stroke: gray; fill: rgb(42, 127, 255);" x="641.7067674611402" y="333.782991202346" height="23.460410557184787" width="40.0465148196439" class="z"></rect><rect style="stroke: gray; fill: rgb(42, 127, 255);" x="641.7067674611402" y="254.60410557184755" height="23.46041055718476" width="40.0465148196439" class="z"></rect><rect style="stroke: gray; fill: rgb(42, 127, 255);" x="641.7067674611402" y="20" height="46.187683284457435" width="40.0465148196439" class="z"></rect><rect style="stroke: gray; fill: rgb(113, 200, 55);" x="667.0451034249967" y="231.14369501466274" height="10.997067448680355" width="0.421452456772613" class="z"></rect><rect style="stroke: gray; fill: rgb(255, 212, 40);" x="667.0451034249967" y="242.8739002932551" height="10.997067448680326" width="2.538952452135959" class="z"></rect><rect style="stroke: gray; fill: rgb(255, 127, 42);" x="681.7874079857859" y="583.0498533724341" height="23.460410557184673" width="23.09798343048658" class="z"></rect><rect style="stroke: gray; fill: rgb(255, 127, 42);" x="681.7874079857859" y="500.9384164222874" height="70.38123167155419" width="23.09798343048658" class="z"></rect><rect style="stroke: gray; fill: rgb(255, 127, 42);" x="681.7874079857859" y="333.782991202346" height="23.460410557184787" width="23.09798343048658" class="z"></rect><rect style="stroke: gray; fill: rgb(255, 127, 42);" x="681.7874079857859" y="20" height="257.3313782991202" width="23.09798343048658" class="z"></rect><rect style="stroke: gray; fill: rgb(255, 42, 42);" x="685.3706070109777" y="489.20821114369505" height="10.997067448680298" width="1.2848327933188557" class="z"></rect><rect style="stroke: gray; fill: rgb(0, 68, 170);" x="685.3706070109777" y="357.2434017595308" height="70.38123167155419" width="2.0202417361082325" class="z"></rect><rect style="stroke: gray; fill: rgb(0, 68, 170);" x="685.3706070109777" y="310.3225806451613" height="22.72727272727269" width="2.0202417361082325" class="z"></rect><rect style="stroke: gray; fill: rgb(68, 120, 33);" x="685.3706070109777" y="477.47800586510266" height="10.997067448680298" width="2.1601571266156725" class="z"></rect><rect style="stroke: gray; fill: rgb(212, 170, 0);" x="685.3706070109777" y="427.624633431085" height="10.997067448680355" width="4.327139394231722" class="z"></rect><rect style="stroke: gray; fill: rgb(212, 85, 0);" x="685.3706070109777" y="439.3548387096774" height="2.1994134897360595" width="7.176635761884199" class="z"></rect><rect style="stroke: gray; fill: rgb(212, 0, 0);" x="685.3706070109777" y="465.7478005865103" height="11.730205278592337" width="9.265128907996086" class="z"></rect><rect style="stroke: gray; fill: rgb(212, 0, 0);" x="685.3706070109777" y="442.2873900293255" height="10.997067448680298" width="9.265128907996086" class="z"></rect><rect style="stroke: gray; fill: rgb(128, 179, 255);" x="694.6869244764764" y="465.7478005865103" height="35.190615835777066" width="29.79003418134471" class="z"></rect><rect style="stroke: gray; fill: rgb(128, 179, 255);" x="694.6869244764764" y="357.2434017595308" height="96.77419354838707" width="29.79003418134471" class="z"></rect><rect style="stroke: gray; fill: rgb(128, 179, 255);" x="694.6869244764764" y="278.0645161290323" height="54.98533724340166" width="29.79003418134471" class="z"></rect><rect style="stroke: gray; fill: rgb(170, 222, 135);" x="699.4986488817341" y="747.2727272727274" height="10.997067448680355" width="0.416333601022302" class="z"></rect><rect style="stroke: gray; fill: rgb(255, 230, 128);" x="699.4986488817341" y="759.0029325513196" height="10.997067448680355" width="2.5611341603870414" class="z"></rect><rect style="stroke: gray; fill: rgb(255, 179, 128);" x="702.1092653143738" y="606.5102639296188" height="163.48973607038124" width="37.73279202051992" class="z"></rect><rect style="stroke: gray; fill: rgb(255, 179, 128);" x="702.1092653143738" y="571.3196480938416" height="11.730205278592507" width="37.73279202051992" class="z"></rect><rect style="stroke: gray; fill: rgb(255, 179, 128);" x="702.1092653143738" y="454.0175953079179" height="10.997067448680298" width="37.73279202051992" class="z"></rect><rect style="stroke: gray; fill: rgb(255, 128, 128);" x="704.9246359770244" y="78.65102639296191" height="10.99706744868034" width="1.3513779180724441" class="z"></rect><rect style="stroke: gray; fill: rgb(42, 127, 255);" x="704.9246359770244" y="102.11143695014664" height="93.108504398827" width="2.016829165608101" class="z"></rect><rect style="stroke: gray; fill: rgb(113, 200, 55);" x="704.9246359770244" y="195.95307917888564" height="10.997067448680326" width="2.146506844614919" class="z"></rect><rect style="stroke: gray; fill: rgb(255, 212, 40);" x="704.9246359770244" y="90.38123167155427" height="10.99706744868034" width="4.374915381234246" class="z"></rect><rect style="stroke: gray; fill: rgb(255, 127, 42);" x="704.9246359770244" y="75.71847507331381" height="2.1994134897360738" width="7.173223191384068" class="z"></rect><rect style="stroke: gray; fill: rgb(255, 42, 42);" x="704.9246359770244" y="583.0498533724341" height="23.460410557184673" width="64.7586440967167" class="z"></rect><rect style="stroke: gray; fill: rgb(255, 42, 42);" x="704.9246359770244" y="500.9384164222874" height="70.38123167155419" width="64.7586440967167" class="z"></rect><rect style="stroke: gray; fill: rgb(255, 42, 42);" x="704.9246359770244" y="333.782991202346" height="23.460410557184787" width="64.7586440967167" class="z"></rect><rect style="stroke: gray; fill: rgb(255, 42, 42);" x="704.9246359770244" y="207.683284457478" height="69.64809384164221" width="64.7586440967167" class="z"></rect><rect style="stroke: gray; fill: rgb(0, 68, 170);" x="712.1422225849108" y="20" height="186.95014662756597" width="63.24687536513591" class="z"></rect><rect style="stroke: gray; fill: rgb(68, 120, 33);" x="724.4786649430713" y="442.2873900293255" height="10.997067448680298" width="0.4231587420225651" class="z"></rect><rect style="stroke: gray; fill: rgb(212, 170, 0);" x="724.4786649430713" y="465.7478005865103" height="10.997067448680298" width="2.574784442387795" class="z"></rect><rect style="stroke: gray; fill: rgb(212, 85, 0);" x="724.4786649430713" y="477.47800586510266" height="22.72727272727269" width="8.034897242680131" class="z"></rect><rect style="stroke: gray; fill: rgb(212, 0, 0);" x="739.8864207513961" y="606.5102639296188" height="163.48973607038124" width="22.980249748230108" class="z"></rect><rect style="stroke: gray; fill: rgb(212, 0, 0);" x="739.8864207513961" y="571.3196480938416" height="11.730205278592507" width="22.980249748230108" class="z"></rect><rect style="stroke: gray; fill: rgb(212, 0, 0);" x="739.8864207513961" y="357.2434017595308" height="143.6950146627566" width="22.980249748230108" class="z"></rect><rect style="stroke: gray; fill: rgb(212, 0, 0);" x="739.8864207513961" y="278.0645161290323" height="54.98533724340166" width="22.980249748230108" class="z"></rect><rect style="stroke: gray; fill: rgb(128, 179, 255);" x="762.8700830701265" y="298.5923753665689" height="10.997067448680355" width="0.41974617152243354" class="z"></rect><rect style="stroke: gray; fill: rgb(170, 222, 135);" x="762.8700830701265" y="653.4310850439883" height="10.997067448680355" width="1.2421756620665292" class="z"></rect><rect style="stroke: gray; fill: rgb(255, 230, 128);" x="762.8700830701265" y="676.891495601173" height="93.108504398827" width="2.023654306608364" class="z"></rect><rect style="stroke: gray; fill: rgb(255, 179, 128);" x="762.8700830701265" y="638.7683284457478" height="10.997067448680468" width="2.136269133114297" class="z"></rect><rect style="stroke: gray; fill: rgb(255, 128, 128);" x="762.8700830701265" y="665.1612903225806" height="10.997067448680355" width="4.315195397481034" class="z"></rect><rect style="stroke: gray; fill: rgb(42, 127, 255);" x="762.8700830701265" y="650.4985337243402" height="2.1994134897361164" width="7.168104335633757" class="z"></rect><rect style="stroke: gray; fill: rgb(113, 200, 55);" x="762.8700830701265" y="310.3225806451613" height="22.72727272727269" width="8.089498370683145" class="z"></rect><rect style="stroke: gray; fill: rgb(255, 212, 40);" x="762.8700830701265" y="606.5102639296188" height="32.258064516129025" width="29.45389598707675" class="z"></rect><rect style="stroke: gray; fill: rgb(255, 212, 40);" x="762.8700830701265" y="571.3196480938416" height="11.730205278592507" width="29.45389598707675" class="z"></rect><rect style="stroke: gray; fill: rgb(255, 212, 40);" x="762.8700830701265" y="357.2434017595308" height="142.96187683284455" width="29.45389598707675" class="z"></rect><rect style="stroke: gray; fill: rgb(255, 127, 42);" x="769.7293497754936" y="524.3988269794721" height="10.997067448680355" width="2.612322717889924" class="z"></rect><rect style="stroke: gray; fill: rgb(255, 42, 42);" x="769.7293497754936" y="653.4310850439883" height="116.56891495601167" width="41.33817275396302" class="z"></rect><rect style="stroke: gray; fill: rgb(255, 42, 42);" x="769.7293497754936" y="638.7683284457478" height="11.730205278592393" width="41.33817275396302" class="z"></rect><rect style="stroke: gray; fill: rgb(255, 42, 42);" x="769.7293497754936" y="583.0498533724341" height="23.460410557184673" width="41.33817275396302" class="z"></rect><rect style="stroke: gray; fill: rgb(255, 42, 42);" x="769.7293497754936" y="536.1290322580646" height="34.45747800586503" width="41.33817275396302" class="z"></rect><rect style="stroke: gray; fill: rgb(0, 68, 170);" x="775.4112796582979" y="650.4985337243402" height="2.932551319648155" width="22.572447573458362" class="z"></rect><rect style="stroke: gray; fill: rgb(0, 68, 170);" x="775.4112796582979" y="500.9384164222874" height="35.19061583577724" width="22.572447573458362" class="z"></rect><rect style="stroke: gray; fill: rgb(0, 68, 170);" x="775.4112796582979" y="20" height="336.51026392961876" width="22.572447573458362" class="z"></rect><rect style="stroke: gray; fill: rgb(68, 120, 33);" x="792.3546921917049" y="415.89442815249265" height="10.997067448680298" width="0.4146273157722362" class="z"></rect><rect style="stroke: gray; fill: rgb(212, 170, 0);" x="792.3546921917049" y="615.307917888563" height="10.997067448680355" width="1.2182876685652673" class="z"></rect><rect style="stroke: gray; fill: rgb(212, 85, 0);" x="792.3546921917049" y="606.5102639296188" height="8.797653958944238" width="2.0458360148595602" class="z"></rect><rect style="stroke: gray; fill: rgb(212, 85, 0);" x="792.3546921917049" y="571.3196480938416" height="11.730205278592507" width="2.0458360148595602" class="z"></rect><rect style="stroke: gray; fill: rgb(212, 85, 0);" x="792.3546921917049" y="427.624633431085" height="72.58064516129036" width="2.0458360148595602" class="z"></rect><rect style="stroke: gray; fill: rgb(212, 0, 0);" x="792.3546921917049" y="627.0381231671554" height="10.997067448680355" width="2.134562847864231" class="z"></rect><rect style="stroke: gray; fill: rgb(128, 179, 255);" x="794.50461160682" y="606.5102639296188" height="32.258064516129025" width="64.70916182446399" class="z"></rect><rect style="stroke: gray; fill: rgb(128, 179, 255);" x="794.50461160682" y="571.3196480938416" height="11.730205278592507" width="64.70916182446399" class="z"></rect><rect style="stroke: gray; fill: rgb(128, 179, 255);" x="794.50461160682" y="357.2434017595308" height="142.96187683284455" width="64.70916182446399" class="z"></rect><rect style="stroke: gray; fill: rgb(170, 222, 135);" x="797.9854335170063" y="134.36950146627564" height="10.997067448680355" width="0.41974617152254723" class="z"></rect><rect style="stroke: gray; fill: rgb(255, 230, 128);" x="797.9854335170063" y="146.099706744868" height="10.997067448680355" width="1.2046373865645137" class="z"></rect><rect style="stroke: gray; fill: rgb(255, 179, 128);" x="797.9854335170063" y="503.8709677419355" height="10.997067448680355" width="2.5201833143848944" class="z"></rect><rect style="stroke: gray; fill: rgb(255, 128, 128);" x="797.9854335170063" y="500.9384164222874" height="2.9325513196480983" width="4.330551964731853" class="z"></rect><rect style="stroke: gray; fill: rgb(255, 128, 128);" x="797.9854335170063" y="348.44574780058656" height="8.0645161290322" width="4.330551964731853" class="z"></rect><rect style="stroke: gray; fill: rgb(42, 127, 255);" x="797.9854335170063" y="157.82991202346037" height="2.199413489736088" width="7.151041483132758" class="z"></rect><rect style="stroke: gray; fill: rgb(113, 200, 55);" x="797.9854335170063" y="650.4985337243402" height="2.932551319648155" width="8.077554373932458" class="z"></rect><rect style="stroke: gray; fill: rgb(113, 200, 55);" x="797.9854335170063" y="515.6011730205279" height="19.794721407624593" width="8.077554373932458" class="z"></rect><rect style="stroke: gray; fill: rgb(255, 212, 40);" x="797.9854335170063" y="160.76246334310855" height="186.95014662756586" width="61.50646441004267" class="z"></rect><rect style="stroke: gray; fill: rgb(255, 127, 42);" x="806.0732256024393" y="650.4985337243402" height="2.932551319648155" width="29.537503964331222" class="z"></rect><rect style="stroke: gray; fill: rgb(255, 127, 42);" x="806.0732256024393" y="500.9384164222874" height="35.19061583577724" width="29.537503964331222" class="z"></rect><rect style="stroke: gray; fill: rgb(255, 127, 42);" x="806.0732256024393" y="348.44574780058656" height="8.797653958944238" width="29.537503964331222" class="z"></rect><rect style="stroke: gray; fill: rgb(255, 127, 42);" x="806.0732256024393" y="20" height="140.02932551319645" width="29.537503964331222" class="z"></rect><rect style="stroke: gray; fill: rgb(255, 42, 42);" x="811.0897042377078" y="653.4310850439883" height="10.997067448680355" width="1.3684407705732156" class="z"></rect><rect style="stroke: gray; fill: rgb(0, 68, 170);" x="811.0897042377078" y="759.0029325513196" height="10.997067448680355" width="2.1430942741146737" class="z"></rect><rect style="stroke: gray; fill: rgb(68, 120, 33);" x="811.0897042377078" y="665.1612903225806" height="93.10850439882711" width="6.620386770354457" class="z"></rect><rect style="stroke: gray; fill: rgb(212, 170, 0);" x="835.6602118390231" y="638.7683284457478" height="131.23167155425222" width="29.175771491311934" class="z"></rect><rect style="stroke: gray; fill: rgb(212, 170, 0);" x="835.6602118390231" y="583.0498533724341" height="23.460410557184673" width="29.175771491311934" class="z"></rect><rect style="stroke: gray; fill: rgb(212, 170, 0);" x="835.6602118390231" y="500.9384164222874" height="70.38123167155419" width="29.175771491311934" class="z"></rect><rect style="stroke: gray; fill: rgb(212, 170, 0);" x="835.6602118390231" y="348.44574780058656" height="8.797653958944238" width="29.175771491311934" class="z"></rect><rect style="stroke: gray; fill: rgb(212, 170, 0);" x="835.6602118390231" y="20" height="140.02932551319645" width="29.175771491311934" class="z"></rect><rect style="stroke: gray; fill: rgb(212, 85, 0);" x="859.2581368477864" y="627.0381231671554" height="10.997067448680355" width="0.4299838830229419" class="z"></rect><rect style="stroke: gray; fill: rgb(212, 0, 0);" x="859.2581368477864" y="471.61290322580646" height="10.997067448680355" width="1.40086019032492" class="z"></rect><rect style="stroke: gray; fill: rgb(128, 179, 255);" x="859.2581368477864" y="615.307917888563" height="10.997067448680355" width="2.5508964488864194" class="z"></rect><rect style="stroke: gray; fill: rgb(170, 222, 135);" x="859.2581368477864" y="606.5102639296188" height="5.865102639296197" width="4.366383954983689" class="z"></rect><rect style="stroke: gray; fill: rgb(170, 222, 135);" x="859.2581368477864" y="577.1847507331378" height="5.131964809384158" width="4.366383954983689" class="z"></rect><rect style="stroke: gray; fill: rgb(255, 230, 128);" x="859.2581368477864" y="612.375366568915" height="2.1994134897360027" width="7.159572909383314" class="z"></rect><rect style="stroke: gray; fill: rgb(255, 179, 128);" x="859.2581368477864" y="571.3196480938416" height="5.865102639296197" width="9.254891196495237" class="z"></rect><rect style="stroke: gray; fill: rgb(255, 179, 128);" x="859.2581368477864" y="483.3431085043988" height="16.86217008797655" width="9.254891196495237" class="z"></rect><rect style="stroke: gray; fill: rgb(255, 128, 128);" x="859.5140796353" y="263.4017595307918" height="10.997067448680298" width="2.139681703614656" class="z"></rect><rect style="stroke: gray; fill: rgb(42, 127, 255);" x="859.5140796353" y="357.2434017595308" height="114.36950146627566" width="37.847113132276036" class="z"></rect><rect style="stroke: gray; fill: rgb(42, 127, 255);" x="859.5140796353" y="275.13196480938416" height="72.58064516129025" width="37.847113132276036" class="z"></rect><rect style="stroke: gray; fill: rgb(113, 200, 55);" x="859.5140796353" y="169.56011730205282" height="93.10850439882697" width="54.271814949655436" class="z"></rect><rect style="stroke: gray; fill: rgb(255, 212, 40);" x="864.8376896155851" y="75.71847507331381" height="10.99706744868034" width="0.4231587420226788" class="z"></rect><rect style="stroke: gray; fill: rgb(255, 127, 42);" x="864.8376896155851" y="63.98826979472137" height="10.997067448680433" width="2.1482131298650984" class="z"></rect><rect style="stroke: gray; fill: rgb(255, 42, 42);" x="864.8376896155851" y="615.307917888563" height="154.692082111437" width="29.866817017598805" class="z"></rect><rect style="stroke: gray; fill: rgb(255, 42, 42);" x="864.8376896155851" y="580.1173020527859" height="31.524926686216986" width="29.866817017598805" class="z"></rect><rect style="stroke: gray; fill: rgb(0, 68, 170);" x="864.8376896155851" y="577.1847507331378" height="2.932551319648155" width="64.763762952467" class="z"></rect><rect style="stroke: gray; fill: rgb(0, 68, 170);" x="864.8376896155851" y="500.9384164222874" height="70.38123167155419" width="64.763762952467" class="z"></rect><rect style="stroke: gray; fill: rgb(0, 68, 170);" x="864.8376896155851" y="471.61290322580646" height="11.730205278592337" width="64.763762952467" class="z"></rect><rect style="stroke: gray; fill: rgb(0, 68, 170);" x="864.8376896155851" y="348.44574780058656" height="8.797653958944238" width="64.763762952467" class="z"></rect><rect style="stroke: gray; fill: rgb(0, 68, 170);" x="864.8376896155851" y="263.4017595307918" height="11.730205278592337" width="64.763762952467" class="z"></rect><rect style="stroke: gray; fill: rgb(0, 68, 170);" x="864.8376896155851" y="87.44868035190619" height="81.37829912023462" width="64.763762952467" class="z"></rect><rect style="stroke: gray; fill: rgb(68, 120, 33);" x="894.7318071971853" y="483.3431085043988" height="2.9325513196480983" width="0.41803988627236777" class="z"></rect><rect style="stroke: gray; fill: rgb(68, 120, 33);" x="894.7318071971853" y="78.65102639296191" height="8.064516129032242" width="0.41803988627236777" class="z"></rect><rect style="stroke: gray; fill: rgb(212, 170, 0);" x="894.7318071971853" y="486.2756598240469" height="10.997067448680355" width="1.2763013670684131" class="z"></rect><rect style="stroke: gray; fill: rgb(212, 85, 0);" x="894.7318071971853" y="63.98826979472137" height="10.997067448680433" width="2.15162570036523" class="z"></rect><rect style="stroke: gray; fill: rgb(212, 0, 0);" x="894.7318071971853" y="580.1173020527859" height="2.932551319648155" width="4.296426259730197" class="z"></rect><rect style="stroke: gray; fill: rgb(212, 0, 0);" x="894.7318071971853" y="571.3196480938416" height="5.865102639296197" width="4.296426259730197" class="z"></rect><rect style="stroke: gray; fill: rgb(212, 0, 0);" x="894.7318071971853" y="498.0058651026393" height="2.1994134897360595" width="4.296426259730197" class="z"></rect><rect style="stroke: gray; fill: rgb(128, 179, 255);" x="894.7318071971853" y="75.71847507331381" height="2.1994134897360738" width="7.164691765133625" class="z"></rect><rect style="stroke: gray; fill: rgb(170, 222, 135);" x="894.7318071971853" y="583.0498533724341" height="186.9501466275659" width="63.378259329392904" class="z"></rect><rect style="stroke: gray; fill: rgb(255, 230, 128);" x="913.8251391457075" y="580.1173020527859" height="2.932551319648155" width="22.50419616345482" class="z"></rect><rect style="stroke: gray; fill: rgb(255, 230, 128);" x="913.8251391457075" y="571.3196480938416" height="5.865102639296197" width="22.50419616345482" class="z"></rect><rect style="stroke: gray; fill: rgb(255, 230, 128);" x="913.8251391457075" y="483.3431085043988" height="17.59530791788859" width="22.50419616345482" class="z"></rect><rect style="stroke: gray; fill: rgb(255, 230, 128);" x="913.8251391457075" y="357.2434017595308" height="114.36950146627566" width="22.50419616345482" class="z"></rect><rect style="stroke: gray; fill: rgb(255, 230, 128);" x="913.8251391457075" y="275.13196480938416" height="73.3137829912024" width="22.50419616345482" class="z"></rect><rect style="stroke: gray; fill: rgb(255, 230, 128);" x="913.8251391457075" y="169.56011730205282" height="93.841642228739" width="22.50419616345482" class="z"></rect><rect style="stroke: gray; fill: rgb(255, 230, 128);" x="913.8251391457075" y="20" height="66.71554252199415" width="22.50419616345482" class="z"></rect><rect style="stroke: gray; fill: rgb(255, 179, 128);" x="929.6424034140542" y="539.0615835777127" height="10.997067448680355" width="2.5730781571376156" class="z"></rect><rect style="stroke: gray; fill: rgb(255, 128, 128);" x="929.6424034140542" y="577.1847507331378" height="2.932551319648155" width="8.082673229682769" class="z"></rect><rect style="stroke: gray; fill: rgb(255, 128, 128);" x="929.6424034140542" y="550.7917888563051" height="19.794721407624593" width="8.082673229682769" class="z"></rect><rect style="stroke: gray; fill: rgb(42, 127, 255);" x="936.3481044469132" y="134.36950146627564" height="10.997067448680355" width="0.41803988627236777" class="z"></rect><rect style="stroke: gray; fill: rgb(113, 200, 55);" x="936.3481044469132" y="360.17595307917895" height="10.997067448680298" width="1.3001893605695614" class="z"></rect><rect style="stroke: gray; fill: rgb(255, 212, 40);" x="936.3481044469132" y="40.52785923753664" height="93.108504398827" width="2.0270668771084956" class="z"></rect><rect style="stroke: gray; fill: rgb(255, 127, 42);" x="936.3481044469132" y="149.0322580645161" height="10.997067448680355" width="2.149919415114937" class="z"></rect><rect style="stroke: gray; fill: rgb(255, 42, 42);" x="936.3481044469132" y="160.76246334310855" height="10.997067448680355" width="4.354439958233115" class="z"></rect><rect style="stroke: gray; fill: rgb(0, 68, 170);" x="936.3481044469132" y="146.099706744868" height="2.1994134897360595" width="7.120328348631233" class="z"></rect><rect style="stroke: gray; fill: rgb(68, 120, 33);" x="936.3481044469132" y="580.1173020527859" height="2.932551319648155" width="29.646706220337023" class="z"></rect><rect style="stroke: gray; fill: rgb(68, 120, 33);" x="936.3481044469132" y="571.3196480938416" height="5.865102639296197" width="29.646706220337023" class="z"></rect><rect style="stroke: gray; fill: rgb(68, 120, 33);" x="936.3481044469132" y="371.9061583577713" height="178.15249266862173" width="29.646706220337023" class="z"></rect><rect style="stroke: gray; fill: rgb(212, 170, 0);" x="936.3481044469132" y="172.49266862170091" height="186.95014662756594" width="39.2343230406002" class="z"></rect><rect style="stroke: gray; fill: rgb(212, 85, 0);" x="958.1544299430806" y="747.2727272727274" height="10.997067448680355" width="0.4231587420225651" class="z"></rect><rect style="stroke: gray; fill: rgb(212, 0, 0);" x="958.1544299430806" y="735.5425219941349" height="10.997067448680468" width="2.1345628478641174" class="z"></rect><rect style="stroke: gray; fill: rgb(128, 179, 255);" x="958.1544299430806" y="759.0029325513196" height="10.997067448680355" width="2.545777593136222" class="z"></rect><rect style="stroke: gray; fill: rgb(170, 222, 135);" x="975.6097280515149" y="204.7507331378299" height="10.997067448680355" width="0.42998388302305557" class="z"></rect><rect style="stroke: gray; fill: rgb(255, 230, 128);" x="975.6097280515149" y="348.44574780058656" height="10.997067448680298" width="1.2234065243155783" class="z"></rect><rect style="stroke: gray; fill: rgb(255, 179, 128);" x="975.6097280515149" y="336.7155425219941" height="10.997067448680298" width="4.390271948485065" class="z"></rect></svg>
